<?xml version="1.0" encoding="UTF-8" standalone="no"?><svg xmlns="http://www.w3.org/2000/svg" xmlns:xlink="http://www.w3.org/1999/xlink" contentScriptType="application/ecmascript" contentStyleType="text/css" height="493px" preserveAspectRatio="none" style="width:1523px;height:493px;" version="1.1" viewBox="0 0 1523 493" width="1523px" zoomAndPan="magnify"><defs><filter height="300%" id="f165jbm0sk0s0r" width="300%" x="-1" y="-1"><feGaussianBlur result="blurOut" stdDeviation="2.0"/><feColorMatrix in="blurOut" result="blurOut2" type="matrix" values="0 0 0 0 0 0 0 0 0 0 0 0 0 0 0 0 0 0 .4 0"/><feOffset dx="4.0" dy="4.0" in="blurOut2" result="blurOut3"/><feBlend in="SourceGraphic" in2="blurOut3" mode="normal"/></filter></defs><g><!--cluster object_processors--><rect fill="#FFFFFF" filter="url(#f165jbm0sk0s0r)" height="440.5" style="stroke: #000000; stroke-width: 2.0;" width="847" x="14" y="41.5"/><text fill="#000000" font-family="sans-serif" font-size="14" font-weight="bold" lengthAdjust="spacingAndGlyphs" textLength="146" x="364.5" y="56.4951">object_processors</text><!--cluster fusion--><rect fill="#FFFFFF" filter="url(#f165jbm0sk0s0r)" height="345" style="stroke: #000000; stroke-width: 2.0;" width="638" x="874" y="16"/><text fill="#000000" font-family="sans-serif" font-size="14" font-weight="bold" lengthAdjust="spacingAndGlyphs" textLength="49" x="1168.5" y="30.9951">fusion</text><!--class ObjectsProcessor--><rect fill="#FEFECE" filter="url(#f165jbm0sk0s0r)" height="60.8047" id="ObjectsProcessor" style="stroke: #A80036; stroke-width: 1.5;" width="234" x="549" y="68.5"/><ellipse cx="564" cy="84.5" fill="#ADD1B2" rx="11" ry="11" style="stroke: #A80036; stroke-width: 1.0;"/><path d="M566.9688,90.1406 Q566.3906,90.4375 565.75,90.5781 Q565.1094,90.7344 564.4063,90.7344 Q561.9063,90.7344 560.5781,89.0938 Q559.2656,87.4375 559.2656,84.3125 Q559.2656,81.1875 560.5781,79.5313 Q561.9063,77.875 564.4063,77.875 Q565.1094,77.875 565.75,78.0313 Q566.4063,78.1875 566.9688,78.4844 L566.9688,81.2031 Q566.3438,80.625 565.75,80.3594 Q565.1563,80.0781 564.5313,80.0781 Q563.1875,80.0781 562.5,81.1563 Q561.8125,82.2188 561.8125,84.3125 Q561.8125,86.4063 562.5,87.4844 Q563.1875,88.5469 564.5313,88.5469 Q565.1563,88.5469 565.75,88.2813 Q566.3438,88 566.9688,87.4219 L566.9688,90.1406 Z "/><text fill="#000000" font-family="sans-serif" font-size="12" lengthAdjust="spacingAndGlyphs" textLength="110" x="578" y="88.6543">ObjectsProcessor</text><rect fill="#FFFFFF" height="15.9688" style="stroke: #000000; stroke-width: 1.0; stroke-dasharray: 2.0,2.0;" width="90" x="696" y="65.5"/><text fill="#000000" font-family="sans-serif" font-size="12" font-style="italic" lengthAdjust="spacingAndGlyphs" textLength="88" x="697" y="77.6387">TemplateType</text><line style="stroke: #A80036; stroke-width: 1.5;" x1="550" x2="782" y1="100.5" y2="100.5"/><line style="stroke: #A80036; stroke-width: 1.5;" x1="550" x2="782" y1="108.5" y2="108.5"/><ellipse cx="560" cy="120.4023" fill="#84BE84" rx="3" ry="3" style="stroke: #038048; stroke-width: 1.0;"/><text fill="#000000" font-family="sans-serif" font-size="11" font-style="italic" lengthAdjust="spacingAndGlyphs" textLength="169" x="569" y="122.7104">process(TemplateType) : bool</text><!--class SingleObjectProcessor--><rect fill="#FEFECE" filter="url(#f165jbm0sk0s0r)" height="60.8047" id="SingleObjectProcessor" style="stroke: #A80036; stroke-width: 1.5;" width="281" x="22.5" y="253.5"/><ellipse cx="88.25" cy="269.5" fill="#ADD1B2" rx="11" ry="11" style="stroke: #A80036; stroke-width: 1.0;"/><path d="M91.2188,275.1406 Q90.6406,275.4375 90,275.5781 Q89.3594,275.7344 88.6563,275.7344 Q86.1563,275.7344 84.8281,274.0938 Q83.5156,272.4375 83.5156,269.3125 Q83.5156,266.1875 84.8281,264.5313 Q86.1563,262.875 88.6563,262.875 Q89.3594,262.875 90,263.0313 Q90.6563,263.1875 91.2188,263.4844 L91.2188,266.2031 Q90.5938,265.625 90,265.3594 Q89.4063,265.0781 88.7813,265.0781 Q87.4375,265.0781 86.75,266.1563 Q86.0625,267.2188 86.0625,269.3125 Q86.0625,271.4063 86.75,272.4844 Q87.4375,273.5469 88.7813,273.5469 Q89.4063,273.5469 90,273.2813 Q90.5938,273 91.2188,272.4219 L91.2188,275.1406 Z "/><text fill="#000000" font-family="sans-serif" font-size="12" lengthAdjust="spacingAndGlyphs" textLength="141" x="108.75" y="273.6543">SingleObjectProcessor</text><line style="stroke: #A80036; stroke-width: 1.5;" x1="23.5" x2="302.5" y1="285.5" y2="285.5"/><line style="stroke: #A80036; stroke-width: 1.5;" x1="23.5" x2="302.5" y1="293.5" y2="293.5"/><ellipse cx="33.5" cy="305.4023" fill="#84BE84" rx="3" ry="3" style="stroke: #038048; stroke-width: 1.0;"/><text fill="#000000" font-family="sans-serif" font-size="11" font-style="italic" lengthAdjust="spacingAndGlyphs" textLength="255" x="42.5" y="307.7104">process( perception_kit_msgs::Object ) : bool</text><!--class ObjectListProcessor--><rect fill="#FEFECE" filter="url(#f165jbm0sk0s0r)" height="60.8047" id="ObjectListProcessor" style="stroke: #A80036; stroke-width: 1.5;" width="239" x="338.5" y="253.5"/><ellipse cx="391.75" cy="269.5" fill="#ADD1B2" rx="11" ry="11" style="stroke: #A80036; stroke-width: 1.0;"/><path d="M394.7188,275.1406 Q394.1406,275.4375 393.5,275.5781 Q392.8594,275.7344 392.1563,275.7344 Q389.6563,275.7344 388.3281,274.0938 Q387.0156,272.4375 387.0156,269.3125 Q387.0156,266.1875 388.3281,264.5313 Q389.6563,262.875 392.1563,262.875 Q392.8594,262.875 393.5,263.0313 Q394.1563,263.1875 394.7188,263.4844 L394.7188,266.2031 Q394.0938,265.625 393.5,265.3594 Q392.9063,265.0781 392.2813,265.0781 Q390.9375,265.0781 390.25,266.1563 Q389.5625,267.2188 389.5625,269.3125 Q389.5625,271.4063 390.25,272.4844 Q390.9375,273.5469 392.2813,273.5469 Q392.9063,273.5469 393.5,273.2813 Q394.0938,273 394.7188,272.4219 L394.7188,275.1406 Z "/><text fill="#000000" font-family="sans-serif" font-size="12" lengthAdjust="spacingAndGlyphs" textLength="124" x="412.25" y="273.6543">ObjectListProcessor</text><line style="stroke: #A80036; stroke-width: 1.5;" x1="339.5" x2="576.5" y1="285.5" y2="285.5"/><line style="stroke: #A80036; stroke-width: 1.5;" x1="339.5" x2="576.5" y1="293.5" y2="293.5"/><ellipse cx="349.5" cy="305.4023" fill="#84BE84" rx="3" ry="3" style="stroke: #038048; stroke-width: 1.0;"/><text fill="#000000" font-family="sans-serif" font-size="11" font-style="italic" lengthAdjust="spacingAndGlyphs" textLength="213" x="358.5" y="307.7104">process( NonCopyableObjects ) : bool</text><!--class HeaderVerification--><rect fill="#FEFECE" filter="url(#f165jbm0sk0s0r)" height="60.8047" id="HeaderVerification" style="stroke: #A80036; stroke-width: 1.5;" width="240" x="613" y="253.5"/><ellipse cx="628" cy="269.5" fill="#ADD1B2" rx="11" ry="11" style="stroke: #A80036; stroke-width: 1.0;"/><path d="M630.9688,275.1406 Q630.3906,275.4375 629.75,275.5781 Q629.1094,275.7344 628.4063,275.7344 Q625.9063,275.7344 624.5781,274.0938 Q623.2656,272.4375 623.2656,269.3125 Q623.2656,266.1875 624.5781,264.5313 Q625.9063,262.875 628.4063,262.875 Q629.1094,262.875 629.75,263.0313 Q630.4063,263.1875 630.9688,263.4844 L630.9688,266.2031 Q630.3438,265.625 629.75,265.3594 Q629.1563,265.0781 628.5313,265.0781 Q627.1875,265.0781 626.5,266.1563 Q625.8125,267.2188 625.8125,269.3125 Q625.8125,271.4063 626.5,272.4844 Q627.1875,273.5469 628.5313,273.5469 Q629.1563,273.5469 629.75,273.2813 Q630.3438,273 630.9688,272.4219 L630.9688,275.1406 Z "/><text fill="#000000" font-family="sans-serif" font-size="12" lengthAdjust="spacingAndGlyphs" textLength="116" x="642" y="273.6543">HeaderVerification</text><rect fill="#FFFFFF" height="15.9688" style="stroke: #000000; stroke-width: 1.0; stroke-dasharray: 2.0,2.0;" width="90" x="766" y="250.5"/><text fill="#000000" font-family="sans-serif" font-size="12" font-style="italic" lengthAdjust="spacingAndGlyphs" textLength="88" x="767" y="262.6387">TemplateType</text><line style="stroke: #A80036; stroke-width: 1.5;" x1="614" x2="852" y1="285.5" y2="285.5"/><line style="stroke: #A80036; stroke-width: 1.5;" x1="614" x2="852" y1="293.5" y2="293.5"/><ellipse cx="624" cy="305.4023" fill="#84BE84" rx="3" ry="3" style="stroke: #038048; stroke-width: 1.0;"/><text fill="#000000" font-family="sans-serif" font-size="11" lengthAdjust="spacingAndGlyphs" textLength="178" x="633" y="307.7104">process( TemplateType ) : bool</text><!--class ExistenceThresholdFilter--><rect fill="#FEFECE" filter="url(#f165jbm0sk0s0r)" height="60.8047" id="ExistenceThresholdFilter" style="stroke: #A80036; stroke-width: 1.5;" width="285" x="22.5" y="413"/><ellipse cx="84.25" cy="429" fill="#ADD1B2" rx="11" ry="11" style="stroke: #A80036; stroke-width: 1.0;"/><path d="M87.2188,434.6406 Q86.6406,434.9375 86,435.0781 Q85.3594,435.2344 84.6563,435.2344 Q82.1563,435.2344 80.8281,433.5938 Q79.5156,431.9375 79.5156,428.8125 Q79.5156,425.6875 80.8281,424.0313 Q82.1563,422.375 84.6563,422.375 Q85.3594,422.375 86,422.5313 Q86.6563,422.6875 87.2188,422.9844 L87.2188,425.7031 Q86.5938,425.125 86,424.8594 Q85.4063,424.5781 84.7813,424.5781 Q83.4375,424.5781 82.75,425.6563 Q82.0625,426.7188 82.0625,428.8125 Q82.0625,430.9063 82.75,431.9844 Q83.4375,433.0469 84.7813,433.0469 Q85.4063,433.0469 86,432.7813 Q86.5938,432.5 87.2188,431.9219 L87.2188,434.6406 Z "/><text fill="#000000" font-family="sans-serif" font-size="12" lengthAdjust="spacingAndGlyphs" textLength="153" x="104.75" y="433.1543">ExistenceThresholdFilter</text><line style="stroke: #A80036; stroke-width: 1.5;" x1="23.5" x2="306.5" y1="445" y2="445"/><line style="stroke: #A80036; stroke-width: 1.5;" x1="23.5" x2="306.5" y1="453" y2="453"/><ellipse cx="33.5" cy="464.9023" fill="#84BE84" rx="3" ry="3" style="stroke: #038048; stroke-width: 1.0;"/><text fill="#000000" font-family="sans-serif" font-size="11" lengthAdjust="spacingAndGlyphs" textLength="259" x="42.5" y="467.2104">process( perception_kit_msgs::Object ) : bool</text><!--class FusionIntefacePreprocessor--><rect fill="#FEFECE" filter="url(#f165jbm0sk0s0r)" height="48" id="FusionIntefacePreprocessor" style="stroke: #A80036; stroke-width: 1.5;" width="208" x="306" y="75"/><ellipse cx="321" cy="91" fill="#ADD1B2" rx="11" ry="11" style="stroke: #A80036; stroke-width: 1.0;"/><path d="M323.9688,96.6406 Q323.3906,96.9375 322.75,97.0781 Q322.1094,97.2344 321.4063,97.2344 Q318.9063,97.2344 317.5781,95.5938 Q316.2656,93.9375 316.2656,90.8125 Q316.2656,87.6875 317.5781,86.0313 Q318.9063,84.375 321.4063,84.375 Q322.1094,84.375 322.75,84.5313 Q323.4063,84.6875 323.9688,84.9844 L323.9688,87.7031 Q323.3438,87.125 322.75,86.8594 Q322.1563,86.5781 321.5313,86.5781 Q320.1875,86.5781 319.5,87.6563 Q318.8125,88.7188 318.8125,90.8125 Q318.8125,92.9063 319.5,93.9844 Q320.1875,95.0469 321.5313,95.0469 Q322.1563,95.0469 322.75,94.7813 Q323.3438,94.5 323.9688,93.9219 L323.9688,96.6406 Z "/><text fill="#000000" font-family="sans-serif" font-size="12" lengthAdjust="spacingAndGlyphs" textLength="176" x="335" y="95.1543">FusionIntefacePreprocessor</text><line style="stroke: #A80036; stroke-width: 1.5;" x1="307" x2="513" y1="107" y2="107"/><line style="stroke: #A80036; stroke-width: 1.5;" x1="307" x2="513" y1="115" y2="115"/><!--class FusionIntefacePostprocessor--><rect fill="#FEFECE" filter="url(#f165jbm0sk0s0r)" height="48" id="FusionIntefacePostprocessor" style="stroke: #A80036; stroke-width: 1.5;" width="215" x="55.5" y="75"/><ellipse cx="70.5" cy="91" fill="#ADD1B2" rx="11" ry="11" style="stroke: #A80036; stroke-width: 1.0;"/><path d="M73.4688,96.6406 Q72.8906,96.9375 72.25,97.0781 Q71.6094,97.2344 70.9063,97.2344 Q68.4063,97.2344 67.0781,95.5938 Q65.7656,93.9375 65.7656,90.8125 Q65.7656,87.6875 67.0781,86.0313 Q68.4063,84.375 70.9063,84.375 Q71.6094,84.375 72.25,84.5313 Q72.9063,84.6875 73.4688,84.9844 L73.4688,87.7031 Q72.8438,87.125 72.25,86.8594 Q71.6563,86.5781 71.0313,86.5781 Q69.6875,86.5781 69,87.6563 Q68.3125,88.7188 68.3125,90.8125 Q68.3125,92.9063 69,93.9844 Q69.6875,95.0469 71.0313,95.0469 Q71.6563,95.0469 72.25,94.7813 Q72.8438,94.5 73.4688,93.9219 L73.4688,96.6406 Z "/><text fill="#000000" font-family="sans-serif" font-size="12" lengthAdjust="spacingAndGlyphs" textLength="183" x="84.5" y="95.1543">FusionIntefacePostprocessor</text><line style="stroke: #A80036; stroke-width: 1.5;" x1="56.5" x2="269.5" y1="107" y2="107"/><line style="stroke: #A80036; stroke-width: 1.5;" x1="56.5" x2="269.5" y1="115" y2="115"/><!--class FusionInterfacePreprocessor--><rect fill="#FEFECE" filter="url(#f165jbm0sk0s0r)" height="112.0234" id="FusionInterfacePreprocessor" style="stroke: #A80036; stroke-width: 1.5;" width="293" x="1210.5" y="43"/><ellipse cx="1262.25" cy="59" fill="#ADD1B2" rx="11" ry="11" style="stroke: #A80036; stroke-width: 1.0;"/><path d="M1265.2188,64.6406 Q1264.6406,64.9375 1264,65.0781 Q1263.3594,65.2344 1262.6563,65.2344 Q1260.1563,65.2344 1258.8281,63.5938 Q1257.5156,61.9375 1257.5156,58.8125 Q1257.5156,55.6875 1258.8281,54.0313 Q1260.1563,52.375 1262.6563,52.375 Q1263.3594,52.375 1264,52.5313 Q1264.6563,52.6875 1265.2188,52.9844 L1265.2188,55.7031 Q1264.5938,55.125 1264,54.8594 Q1263.4063,54.5781 1262.7813,54.5781 Q1261.4375,54.5781 1260.75,55.6563 Q1260.0625,56.7188 1260.0625,58.8125 Q1260.0625,60.9063 1260.75,61.9844 Q1261.4375,63.0469 1262.7813,63.0469 Q1263.4063,63.0469 1264,62.7813 Q1264.5938,62.5 1265.2188,61.9219 L1265.2188,64.6406 Z "/><text fill="#000000" font-family="sans-serif" font-size="12" lengthAdjust="spacingAndGlyphs" textLength="181" x="1282.75" y="63.1543">FusionInterfacePreprocessor</text><line style="stroke: #A80036; stroke-width: 1.5;" x1="1211.5" x2="1502.5" y1="75" y2="75"/><line style="stroke: #A80036; stroke-width: 1.5;" x1="1211.5" x2="1502.5" y1="83" y2="83"/><ellipse cx="1221.5" cy="94.9023" fill="#84BE84" rx="3" ry="3" style="stroke: #038048; stroke-width: 1.0;"/><text fill="#000000" font-family="sans-serif" font-size="11" lengthAdjust="spacingAndGlyphs" textLength="241" x="1230.5" y="97.2104">preprocess(perception_kit_msgs::Objects)</text><ellipse cx="1221.5" cy="107.707" fill="#84BE84" rx="3" ry="3" style="stroke: #038048; stroke-width: 1.0;"/><text fill="#000000" font-family="sans-serif" font-size="11" lengthAdjust="spacingAndGlyphs" textLength="252" x="1230.5" y="110.0151">registerPreprocessor( ObjectListProcessor )</text><ellipse cx="1221.5" cy="120.5117" fill="#84BE84" rx="3" ry="3" style="stroke: #038048; stroke-width: 1.0;"/><text fill="#000000" font-family="sans-serif" font-size="11" lengthAdjust="spacingAndGlyphs" textLength="267" x="1230.5" y="122.8198">registerPreprocessor( SingleObjectProcessor )</text><ellipse cx="1221.5" cy="133.3164" fill="#84BE84" rx="3" ry="3" style="stroke: #038048; stroke-width: 1.0;"/><text fill="#000000" font-family="sans-serif" font-size="11" lengthAdjust="spacingAndGlyphs" textLength="259" x="1230.5" y="135.6245">addInputData( perception_kit_msgs::Objects )</text><polygon fill="#FFFF44" points="1221.5,141.1211,1225.5,145.1211,1221.5,149.1211,1217.5,145.1211" style="stroke: #B38D22; stroke-width: 1.0;"/><text fill="#000000" font-family="sans-serif" font-size="11" lengthAdjust="spacingAndGlyphs" textLength="181" x="1230.5" y="148.4292">getData() : NonCopyableObjects</text><!--class FusionInterfacePostprocessor--><rect fill="#FEFECE" filter="url(#f165jbm0sk0s0r)" height="86.4141" id="FusionInterfacePostprocessor" style="stroke: #A80036; stroke-width: 1.5;" width="293" x="882.5" y="56"/><ellipse cx="930.75" cy="72" fill="#ADD1B2" rx="11" ry="11" style="stroke: #A80036; stroke-width: 1.0;"/><path d="M933.7188,77.6406 Q933.1406,77.9375 932.5,78.0781 Q931.8594,78.2344 931.1563,78.2344 Q928.6563,78.2344 927.3281,76.5938 Q926.0156,74.9375 926.0156,71.8125 Q926.0156,68.6875 927.3281,67.0313 Q928.6563,65.375 931.1563,65.375 Q931.8594,65.375 932.5,65.5313 Q933.1563,65.6875 933.7188,65.9844 L933.7188,68.7031 Q933.0938,68.125 932.5,67.8594 Q931.9063,67.5781 931.2813,67.5781 Q929.9375,67.5781 929.25,68.6563 Q928.5625,69.7188 928.5625,71.8125 Q928.5625,73.9063 929.25,74.9844 Q929.9375,76.0469 931.2813,76.0469 Q931.9063,76.0469 932.5,75.7813 Q933.0938,75.5 933.7188,74.9219 L933.7188,77.6406 Z "/><text fill="#000000" font-family="sans-serif" font-size="12" lengthAdjust="spacingAndGlyphs" textLength="188" x="951.25" y="76.1543">FusionInterfacePostprocessor</text><line style="stroke: #A80036; stroke-width: 1.5;" x1="883.5" x2="1174.5" y1="88" y2="88"/><line style="stroke: #A80036; stroke-width: 1.5;" x1="883.5" x2="1174.5" y1="96" y2="96"/><ellipse cx="893.5" cy="107.9023" fill="#84BE84" rx="3" ry="3" style="stroke: #038048; stroke-width: 1.0;"/><text fill="#000000" font-family="sans-serif" font-size="11" lengthAdjust="spacingAndGlyphs" textLength="252" x="902.5" y="110.2104">registerPreprocessor( ObjectListProcessor )</text><ellipse cx="893.5" cy="120.707" fill="#84BE84" rx="3" ry="3" style="stroke: #038048; stroke-width: 1.0;"/><text fill="#000000" font-family="sans-serif" font-size="11" lengthAdjust="spacingAndGlyphs" textLength="267" x="902.5" y="123.0151">registerPreprocessor( SingleObjectProcessor )</text><polygon fill="#FFFF44" points="893.5,128.5117,897.5,132.5117,893.5,136.5117,889.5,132.5117" style="stroke: #B38D22; stroke-width: 1.0;"/><text fill="#000000" font-family="sans-serif" font-size="11" lengthAdjust="spacingAndGlyphs" textLength="255" x="902.5" y="135.8198">postprocess( perception_kit_msgs::Objects )</text><!--class FusionInterface--><rect fill="#FEFECE" filter="url(#f165jbm0sk0s0r)" height="137.6328" id="FusionInterface" style="stroke: #A80036; stroke-width: 1.5;" width="412" x="990" y="215"/><ellipse cx="1143.25" cy="231" fill="#ADD1B2" rx="11" ry="11" style="stroke: #A80036; stroke-width: 1.0;"/><path d="M1146.2188,236.6406 Q1145.6406,236.9375 1145,237.0781 Q1144.3594,237.2344 1143.6563,237.2344 Q1141.1563,237.2344 1139.8281,235.5938 Q1138.5156,233.9375 1138.5156,230.8125 Q1138.5156,227.6875 1139.8281,226.0313 Q1141.1563,224.375 1143.6563,224.375 Q1144.3594,224.375 1145,224.5313 Q1145.6563,224.6875 1146.2188,224.9844 L1146.2188,227.7031 Q1145.5938,227.125 1145,226.8594 Q1144.4063,226.5781 1143.7813,226.5781 Q1142.4375,226.5781 1141.75,227.6563 Q1141.0625,228.7188 1141.0625,230.8125 Q1141.0625,232.9063 1141.75,233.9844 Q1142.4375,235.0469 1143.7813,235.0469 Q1144.4063,235.0469 1145,234.7813 Q1145.5938,234.5 1146.2188,233.9219 L1146.2188,236.6406 Z "/><text fill="#000000" font-family="sans-serif" font-size="12" lengthAdjust="spacingAndGlyphs" textLength="97" x="1163.75" y="235.1543">FusionInterface</text><line style="stroke: #A80036; stroke-width: 1.5;" x1="991" x2="1401" y1="247" y2="247"/><rect fill="none" height="6" style="stroke: #C82930; stroke-width: 1.0;" width="6" x="998" y="255.9023"/><text fill="#000000" font-family="sans-serif" font-size="11" lengthAdjust="spacingAndGlyphs" textLength="230" x="1010" y="261.2104">fusion_executer_ : ObjectFusionExecuter</text><rect fill="none" height="6" style="stroke: #C82930; stroke-width: 1.0;" width="6" x="998" y="268.707"/><text fill="#000000" font-family="sans-serif" font-size="11" lengthAdjust="spacingAndGlyphs" textLength="166" x="1010" y="274.0151">cost_function_ : CostFunction</text><rect fill="none" height="6" style="stroke: #C82930; stroke-width: 1.0;" width="6" x="998" y="281.5117"/><text fill="#000000" font-family="sans-serif" font-size="11" lengthAdjust="spacingAndGlyphs" textLength="163" x="1010" y="286.8198">predictor_ : ObjectsPredictor</text><line style="stroke: #A80036; stroke-width: 1.5;" x1="991" x2="1401" y1="293.4141" y2="293.4141"/><ellipse cx="1001" cy="305.3164" fill="#84BE84" rx="3" ry="3" style="stroke: #038048; stroke-width: 1.0;"/><text fill="#000000" font-family="sans-serif" font-size="11" lengthAdjust="spacingAndGlyphs" textLength="386" x="1010" y="307.6245">init( set&lt;SensorModalities&gt; , ObjectFusionExecuter , CostFunction )</text><ellipse cx="1001" cy="318.1211" fill="#84BE84" rx="3" ry="3" style="stroke: #038048; stroke-width: 1.0;"/><text fill="#000000" font-family="sans-serif" font-size="11" lengthAdjust="spacingAndGlyphs" textLength="245" x="1010" y="320.4292">fuse( Time ) : perception_kit_msgs:Objects</text><ellipse cx="1001" cy="330.9258" fill="#84BE84" rx="3" ry="3" style="stroke: #038048; stroke-width: 1.0;"/><text fill="#000000" font-family="sans-serif" font-size="11" lengthAdjust="spacingAndGlyphs" textLength="179" x="1010" y="333.2339">setPredictor( ObjectsPredictor )</text><rect fill="#F24D5C" height="6" style="stroke: #C82930; stroke-width: 1.0;" width="6" x="998" y="340.7305"/><text fill="#000000" font-family="sans-serif" font-size="11" lengthAdjust="spacingAndGlyphs" textLength="290" x="1010" y="346.0386">predict( NonCopyableObjectsContainer, ros::Time )</text><!--link ObjectsProcessor to SingleObjectProcessor--><path d="M558.5,135.3555 C558.5,135.3555 558.5,136 558.5,136 C558.5,136 292.5,136 292.5,136 C292.5,136 292.5,209.9842 292.5,253.3343 " fill="none" id="ObjectsProcessor-SingleObjectProcessor" style="stroke: #A80036; stroke-width: 1.0;"/><polygon fill="none" points="551.5003,149.5552,558.5,129.5551,565.5003,149.555,551.5003,149.5552" style="stroke: #A80036; stroke-width: 1.0;"/><!--link ObjectsProcessor to ObjectListProcessor--><path d="M568,149.549 C568,149.549 568,253.4056 568,253.4056 " fill="none" id="ObjectsProcessor-ObjectListProcessor" style="stroke: #A80036; stroke-width: 1.0;"/><polygon fill="none" points="561.0001,149.549,568,129.549,575.0001,149.549,561.0001,149.549" style="stroke: #A80036; stroke-width: 1.0;"/><!--link ObjectsProcessor to HeaderVerification--><path d="M698,149.549 C698,149.549 698,253.4056 698,253.4056 " fill="none" id="ObjectsProcessor-HeaderVerification" style="stroke: #A80036; stroke-width: 1.0;"/><polygon fill="none" points="691.0001,149.549,698,129.549,705.0001,149.549,691.0001,149.549" style="stroke: #A80036; stroke-width: 1.0;"/><!--link SingleObjectProcessor to ExistenceThresholdFilter--><path d="M163,334.7532 C163,334.7532 163,412.8412 163,412.8412 " fill="none" id="SingleObjectProcessor-ExistenceThresholdFilter" style="stroke: #A80036; stroke-width: 1.0;"/><polygon fill="none" points="156.0001,334.7532,163,314.7532,170.0001,334.7532,156.0001,334.7532" style="stroke: #A80036; stroke-width: 1.0;"/><!--link FusionIntefacePreprocessor to SingleObjectProcessor--><path d="M292.9723,99 C292.9723,99 281.5,99 281.5,99 C281.5,99 281.5,200.9058 281.5,253.451 " fill="none" id="FusionIntefacePreprocessor-SingleObjectProcessor" style="stroke: #A80036; stroke-width: 1.0;"/><polygon fill="#A80036" points="305.9723,99,299.9723,95,293.9723,99,299.9723,103,305.9723,99" style="stroke: #A80036; stroke-width: 1.0;"/><!--link FusionIntefacePreprocessor to ObjectListProcessor--><path d="M455.5,136.1855 C455.5,136.1855 455.5,253.344 455.5,253.344 " fill="none" id="FusionIntefacePreprocessor-ObjectListProcessor" style="stroke: #A80036; stroke-width: 1.0;"/><polygon fill="#A80036" points="455.5,123.1855,451.5,129.1855,455.5,135.1855,459.5,129.1855,455.5,123.1855" style="stroke: #A80036; stroke-width: 1.0;"/><!--link FusionIntefacePostprocessor to SingleObjectProcessor--><path d="M127.1667,136.1855 C127.1667,136.1855 127.1667,253.344 127.1667,253.344 " fill="none" id="FusionIntefacePostprocessor-SingleObjectProcessor" style="stroke: #A80036; stroke-width: 1.0;"/><polygon fill="#A80036" points="127.1667,123.1855,123.1667,129.1855,127.1667,135.1855,131.1667,129.1855,127.1667,123.1855" style="stroke: #A80036; stroke-width: 1.0;"/><!--link FusionIntefacePostprocessor to ObjectListProcessor--><path d="M198.8333,136.4141 C198.8333,136.4141 198.8333,185 198.8333,185 C198.8333,185 397,185 397,185 C397,185 397,224.4004 397,253.4889 " fill="none" id="FusionIntefacePostprocessor-ObjectListProcessor" style="stroke: #A80036; stroke-width: 1.0;"/><polygon fill="#A80036" points="198.8333,123.4141,194.8333,129.4141,198.8333,135.4141,202.8333,129.4141,198.8333,123.4141" style="stroke: #A80036; stroke-width: 1.0;"/><!--link FusionInterfacePreprocessor to FusionInterface--><path d="M1306.25,175.0081 C1306.25,175.0081 1306.25,214.7726 1306.25,214.7726 " fill="none" id="FusionInterfacePreprocessor-FusionInterface" style="stroke: #A80036; stroke-width: 1.0;"/><polygon fill="none" points="1299.2501,175.0082,1306.25,155.0081,1313.2501,175.0081,1299.2501,175.0082" style="stroke: #A80036; stroke-width: 1.0;"/><!--link FusionInterfacePostprocessor to FusionInterface--><path d="M1082.75,162.3743 C1082.75,162.3743 1082.75,214.8395 1082.75,214.8395 " fill="none" id="FusionInterfacePostprocessor-FusionInterface" style="stroke: #A80036; stroke-width: 1.0;"/><polygon fill="none" points="1075.7501,162.3743,1082.75,142.3743,1089.7501,162.3742,1075.7501,162.3743" style="stroke: #A80036; stroke-width: 1.0;"/><!--
@startuml(id=object_processors) TrackToTrackFusion_Processors

skinparam linetype ortho

package object_processors <<Rectangle>> {

    class ObjectsProcessor<TemplateType> {
    + {abstract} process(TemplateType) : bool
    }

    class SingleObjectProcessor {
    + {abstract} process( perception_kit_msgs::Object ) : bool
    }

    class ObjectListProcessor {
    + {abstract} process( NonCopyableObjects ) : bool
    }

    class HeaderVerification<TemplateType> {
    + process( TemplateType ) : bool
    }

    class ExistenceThresholdFilter {
    + process( perception_kit_msgs::Object ) : bool
    }

    ObjectsProcessor <|- - SingleObjectProcessor
    ObjectsProcessor <|- - ObjectListProcessor
    ObjectsProcessor <|- - HeaderVerification
    SingleObjectProcessor <|- - ExistenceThresholdFilter

    FusionIntefacePreprocessor     *- -  SingleObjectProcessor
    FusionIntefacePreprocessor     *- -  ObjectListProcessor
    FusionIntefacePostprocessor    *- -  SingleObjectProcessor
    FusionIntefacePostprocessor    *- -  ObjectListProcessor
}


skinparam linetype ortho

package fusion <<Rectangle>> {
    class FusionInterfacePreprocessor {
        + preprocess(perception_kit_msgs::Objects)
        + registerPreprocessor( ObjectListProcessor )
        + registerPreprocessor( SingleObjectProcessor )
        + addInputData( perception_kit_msgs::Objects )
        # getData() : NonCopyableObjects
    '    - data : perception_kit_msgs::Objects
    '    - preprocessed_data : NotCopyableObjects
    }

    class FusionInterfacePostprocessor {
        + registerPreprocessor( ObjectListProcessor )
        + registerPreprocessor( SingleObjectProcessor )
        # postprocess( perception_kit_msgs::Objects )
    }

    class FusionInterface {
        + init( set<SensorModalities> , ObjectFusionExecuter , CostFunction )
        + fuse( Time ) : perception_kit_msgs:Objects
        + setPredictor( ObjectsPredictor )
        - predict( NonCopyableObjectsContainer, ros::Time )
        - fusion_executer_ : ObjectFusionExecuter
        - cost_function_ : CostFunction
        - predictor_ : ObjectsPredictor
    }

    FusionInterfacePreprocessor  <|- -  FusionInterface
    FusionInterfacePostprocessor <|- -  FusionInterface
}


@enduml

PlantUML version 1.2017.15(Mon Jul 03 18:45:34 CEST 2017)
(GPL source distribution)
Java Runtime: OpenJDK Runtime Environment
JVM: OpenJDK 64-Bit Server VM
Java Version: 11.0.9.1+1-Ubuntu-0ubuntu1.18.04
Operating System: Linux
OS Version: 4.15.0-130-generic
Default Encoding: UTF-8
Language: en
Country: US
--></g></svg>