<?xml version="1.0" encoding="UTF-8" standalone="no"?><svg xmlns="http://www.w3.org/2000/svg" xmlns:xlink="http://www.w3.org/1999/xlink" contentScriptType="application/ecmascript" contentStyleType="text/css" height="518px" preserveAspectRatio="none" style="width:1236px;height:518px;" version="1.1" viewBox="0 0 1236 518" width="1236px" zoomAndPan="magnify"><defs><filter height="300%" id="f189qr2x3mqzdk" width="300%" x="-1" y="-1"><feGaussianBlur result="blurOut" stdDeviation="2.0"/><feColorMatrix in="blurOut" result="blurOut2" type="matrix" values="0 0 0 0 0 0 0 0 0 0 0 0 0 0 0 0 0 0 .4 0"/><feOffset dx="4.0" dy="4.0" in="blurOut2" result="blurOut3"/><feBlend in="SourceGraphic" in2="blurOut3" mode="normal"/></filter></defs><g><!--cluster fusion--><rect fill="#FFFFFF" filter="url(#f189qr2x3mqzdk)" height="351" style="stroke: #000000; stroke-width: 2.0;" width="638" x="587" y="16"/><text fill="#000000" font-family="sans-serif" font-size="14" font-weight="bold" lengthAdjust="spacingAndGlyphs" textLength="49" x="881.5" y="30.9951">fusion</text><!--cluster fusion::ros--><rect fill="#FFFFFF" filter="url(#f189qr2x3mqzdk)" height="319" style="stroke: #000000; stroke-width: 2.0;" width="560" x="14" y="188"/><text fill="#000000" font-family="sans-serif" font-size="14" font-weight="bold" lengthAdjust="spacingAndGlyphs" textLength="87" x="250.5" y="202.9951">fusion::ros</text><!--class FusionInterfacePreprocessor--><rect fill="#FEFECE" filter="url(#f189qr2x3mqzdk)" height="112.0234" id="FusionInterfacePreprocessor" style="stroke: #A80036; stroke-width: 1.5;" width="293" x="923.5" y="43"/><ellipse cx="975.25" cy="59" fill="#ADD1B2" rx="11" ry="11" style="stroke: #A80036; stroke-width: 1.0;"/><path d="M978.2188,64.6406 Q977.6406,64.9375 977,65.0781 Q976.3594,65.2344 975.6563,65.2344 Q973.1563,65.2344 971.8281,63.5938 Q970.5156,61.9375 970.5156,58.8125 Q970.5156,55.6875 971.8281,54.0313 Q973.1563,52.375 975.6563,52.375 Q976.3594,52.375 977,52.5313 Q977.6563,52.6875 978.2188,52.9844 L978.2188,55.7031 Q977.5938,55.125 977,54.8594 Q976.4063,54.5781 975.7813,54.5781 Q974.4375,54.5781 973.75,55.6563 Q973.0625,56.7188 973.0625,58.8125 Q973.0625,60.9063 973.75,61.9844 Q974.4375,63.0469 975.7813,63.0469 Q976.4063,63.0469 977,62.7813 Q977.5938,62.5 978.2188,61.9219 L978.2188,64.6406 Z "/><text fill="#000000" font-family="sans-serif" font-size="12" lengthAdjust="spacingAndGlyphs" textLength="181" x="995.75" y="63.1543">FusionInterfacePreprocessor</text><line style="stroke: #A80036; stroke-width: 1.5;" x1="924.5" x2="1215.5" y1="75" y2="75"/><line style="stroke: #A80036; stroke-width: 1.5;" x1="924.5" x2="1215.5" y1="83" y2="83"/><ellipse cx="934.5" cy="94.9023" fill="#84BE84" rx="3" ry="3" style="stroke: #038048; stroke-width: 1.0;"/><text fill="#000000" font-family="sans-serif" font-size="11" lengthAdjust="spacingAndGlyphs" textLength="241" x="943.5" y="97.2104">preprocess(perception_kit_msgs::Objects)</text><ellipse cx="934.5" cy="107.707" fill="#84BE84" rx="3" ry="3" style="stroke: #038048; stroke-width: 1.0;"/><text fill="#000000" font-family="sans-serif" font-size="11" lengthAdjust="spacingAndGlyphs" textLength="252" x="943.5" y="110.0151">registerPreprocessor( ObjectListProcessor )</text><ellipse cx="934.5" cy="120.5117" fill="#84BE84" rx="3" ry="3" style="stroke: #038048; stroke-width: 1.0;"/><text fill="#000000" font-family="sans-serif" font-size="11" lengthAdjust="spacingAndGlyphs" textLength="267" x="943.5" y="122.8198">registerPreprocessor( SingleObjectProcessor )</text><ellipse cx="934.5" cy="133.3164" fill="#84BE84" rx="3" ry="3" style="stroke: #038048; stroke-width: 1.0;"/><text fill="#000000" font-family="sans-serif" font-size="11" lengthAdjust="spacingAndGlyphs" textLength="259" x="943.5" y="135.6245">addInputData( perception_kit_msgs::Objects )</text><polygon fill="#FFFF44" points="934.5,141.1211,938.5,145.1211,934.5,149.1211,930.5,145.1211" style="stroke: #B38D22; stroke-width: 1.0;"/><text fill="#000000" font-family="sans-serif" font-size="11" lengthAdjust="spacingAndGlyphs" textLength="181" x="943.5" y="148.4292">getData() : NonCopyableObjects</text><!--class FusionInterfacePostprocessor--><rect fill="#FEFECE" filter="url(#f189qr2x3mqzdk)" height="86.4141" id="FusionInterfacePostprocessor" style="stroke: #A80036; stroke-width: 1.5;" width="293" x="595.5" y="56"/><ellipse cx="643.75" cy="72" fill="#ADD1B2" rx="11" ry="11" style="stroke: #A80036; stroke-width: 1.0;"/><path d="M646.7188,77.6406 Q646.1406,77.9375 645.5,78.0781 Q644.8594,78.2344 644.1563,78.2344 Q641.6563,78.2344 640.3281,76.5938 Q639.0156,74.9375 639.0156,71.8125 Q639.0156,68.6875 640.3281,67.0313 Q641.6563,65.375 644.1563,65.375 Q644.8594,65.375 645.5,65.5313 Q646.1563,65.6875 646.7188,65.9844 L646.7188,68.7031 Q646.0938,68.125 645.5,67.8594 Q644.9063,67.5781 644.2813,67.5781 Q642.9375,67.5781 642.25,68.6563 Q641.5625,69.7188 641.5625,71.8125 Q641.5625,73.9063 642.25,74.9844 Q642.9375,76.0469 644.2813,76.0469 Q644.9063,76.0469 645.5,75.7813 Q646.0938,75.5 646.7188,74.9219 L646.7188,77.6406 Z "/><text fill="#000000" font-family="sans-serif" font-size="12" lengthAdjust="spacingAndGlyphs" textLength="188" x="664.25" y="76.1543">FusionInterfacePostprocessor</text><line style="stroke: #A80036; stroke-width: 1.5;" x1="596.5" x2="887.5" y1="88" y2="88"/><line style="stroke: #A80036; stroke-width: 1.5;" x1="596.5" x2="887.5" y1="96" y2="96"/><ellipse cx="606.5" cy="107.9023" fill="#84BE84" rx="3" ry="3" style="stroke: #038048; stroke-width: 1.0;"/><text fill="#000000" font-family="sans-serif" font-size="11" lengthAdjust="spacingAndGlyphs" textLength="252" x="615.5" y="110.2104">registerPreprocessor( ObjectListProcessor )</text><ellipse cx="606.5" cy="120.707" fill="#84BE84" rx="3" ry="3" style="stroke: #038048; stroke-width: 1.0;"/><text fill="#000000" font-family="sans-serif" font-size="11" lengthAdjust="spacingAndGlyphs" textLength="267" x="615.5" y="123.0151">registerPreprocessor( SingleObjectProcessor )</text><polygon fill="#FFFF44" points="606.5,128.5117,610.5,132.5117,606.5,136.5117,602.5,132.5117" style="stroke: #B38D22; stroke-width: 1.0;"/><text fill="#000000" font-family="sans-serif" font-size="11" lengthAdjust="spacingAndGlyphs" textLength="255" x="615.5" y="135.8198">postprocess( perception_kit_msgs::Objects )</text><!--class FusionInterface--><rect fill="#FEFECE" filter="url(#f189qr2x3mqzdk)" height="137.6328" id="FusionInterface" style="stroke: #A80036; stroke-width: 1.5;" width="412" x="601" y="221"/><ellipse cx="754.25" cy="237" fill="#ADD1B2" rx="11" ry="11" style="stroke: #A80036; stroke-width: 1.0;"/><path d="M757.2188,242.6406 Q756.6406,242.9375 756,243.0781 Q755.3594,243.2344 754.6563,243.2344 Q752.1563,243.2344 750.8281,241.5938 Q749.5156,239.9375 749.5156,236.8125 Q749.5156,233.6875 750.8281,232.0313 Q752.1563,230.375 754.6563,230.375 Q755.3594,230.375 756,230.5313 Q756.6563,230.6875 757.2188,230.9844 L757.2188,233.7031 Q756.5938,233.125 756,232.8594 Q755.4063,232.5781 754.7813,232.5781 Q753.4375,232.5781 752.75,233.6563 Q752.0625,234.7188 752.0625,236.8125 Q752.0625,238.9063 752.75,239.9844 Q753.4375,241.0469 754.7813,241.0469 Q755.4063,241.0469 756,240.7813 Q756.5938,240.5 757.2188,239.9219 L757.2188,242.6406 Z "/><text fill="#000000" font-family="sans-serif" font-size="12" lengthAdjust="spacingAndGlyphs" textLength="97" x="774.75" y="241.1543">FusionInterface</text><line style="stroke: #A80036; stroke-width: 1.5;" x1="602" x2="1012" y1="253" y2="253"/><rect fill="none" height="6" style="stroke: #C82930; stroke-width: 1.0;" width="6" x="609" y="261.9023"/><text fill="#000000" font-family="sans-serif" font-size="11" lengthAdjust="spacingAndGlyphs" textLength="230" x="621" y="267.2104">fusion_executer_ : ObjectFusionExecuter</text><rect fill="none" height="6" style="stroke: #C82930; stroke-width: 1.0;" width="6" x="609" y="274.707"/><text fill="#000000" font-family="sans-serif" font-size="11" lengthAdjust="spacingAndGlyphs" textLength="166" x="621" y="280.0151">cost_function_ : CostFunction</text><rect fill="none" height="6" style="stroke: #C82930; stroke-width: 1.0;" width="6" x="609" y="287.5117"/><text fill="#000000" font-family="sans-serif" font-size="11" lengthAdjust="spacingAndGlyphs" textLength="163" x="621" y="292.8198">predictor_ : ObjectsPredictor</text><line style="stroke: #A80036; stroke-width: 1.5;" x1="602" x2="1012" y1="299.4141" y2="299.4141"/><ellipse cx="612" cy="311.3164" fill="#84BE84" rx="3" ry="3" style="stroke: #038048; stroke-width: 1.0;"/><text fill="#000000" font-family="sans-serif" font-size="11" lengthAdjust="spacingAndGlyphs" textLength="386" x="621" y="313.6245">init( set&lt;SensorModalities&gt; , ObjectFusionExecuter , CostFunction )</text><ellipse cx="612" cy="324.1211" fill="#84BE84" rx="3" ry="3" style="stroke: #038048; stroke-width: 1.0;"/><text fill="#000000" font-family="sans-serif" font-size="11" lengthAdjust="spacingAndGlyphs" textLength="245" x="621" y="326.4292">fuse( Time ) : perception_kit_msgs:Objects</text><ellipse cx="612" cy="336.9258" fill="#84BE84" rx="3" ry="3" style="stroke: #038048; stroke-width: 1.0;"/><text fill="#000000" font-family="sans-serif" font-size="11" lengthAdjust="spacingAndGlyphs" textLength="179" x="621" y="339.2339">setPredictor( ObjectsPredictor )</text><rect fill="#F24D5C" height="6" style="stroke: #C82930; stroke-width: 1.0;" width="6" x="609" y="346.7305"/><text fill="#000000" font-family="sans-serif" font-size="11" lengthAdjust="spacingAndGlyphs" textLength="290" x="621" y="352.0386">predict( NonCopyableObjectsContainer, ros::Time )</text><!--class InputConfiguration--><rect fill="#FEFECE" filter="url(#f189qr2x3mqzdk)" height="73.6094" id="InputConfiguration" style="stroke: #A80036; stroke-width: 1.5;" width="148" x="125" y="425"/><ellipse cx="140" cy="441" fill="#ADD1B2" rx="11" ry="11" style="stroke: #A80036; stroke-width: 1.0;"/><path d="M142.9688,446.6406 Q142.3906,446.9375 141.75,447.0781 Q141.1094,447.2344 140.4063,447.2344 Q137.9063,447.2344 136.5781,445.5938 Q135.2656,443.9375 135.2656,440.8125 Q135.2656,437.6875 136.5781,436.0313 Q137.9063,434.375 140.4063,434.375 Q141.1094,434.375 141.75,434.5313 Q142.4063,434.6875 142.9688,434.9844 L142.9688,437.7031 Q142.3438,437.125 141.75,436.8594 Q141.1563,436.5781 140.5313,436.5781 Q139.1875,436.5781 138.5,437.6563 Q137.8125,438.7188 137.8125,440.8125 Q137.8125,442.9063 138.5,443.9844 Q139.1875,445.0469 140.5313,445.0469 Q141.1563,445.0469 141.75,444.7813 Q142.3438,444.5 142.9688,443.9219 L142.9688,446.6406 Z "/><text fill="#000000" font-family="sans-serif" font-size="12" lengthAdjust="spacingAndGlyphs" textLength="116" x="154" y="445.1543">InputConfiguration</text><line style="stroke: #A80036; stroke-width: 1.5;" x1="126" x2="272" y1="457" y2="457"/><ellipse cx="136" cy="468.9023" fill="none" rx="3" ry="3" style="stroke: #038048; stroke-width: 1.0;"/><text fill="#000000" font-family="sans-serif" font-size="11" lengthAdjust="spacingAndGlyphs" textLength="77" x="145" y="471.2104">name : string</text><ellipse cx="136" cy="481.707" fill="none" rx="3" ry="3" style="stroke: #038048; stroke-width: 1.0;"/><text fill="#000000" font-family="sans-serif" font-size="11" lengthAdjust="spacingAndGlyphs" textLength="110" x="145" y="484.0151">topic_name : string</text><line style="stroke: #A80036; stroke-width: 1.5;" x1="126" x2="272" y1="490.6094" y2="490.6094"/><!--class OutputConfiguration--><rect fill="#FEFECE" filter="url(#f189qr2x3mqzdk)" height="60.8047" id="OutputConfiguration" style="stroke: #A80036; stroke-width: 1.5;" width="159" x="308.5" y="431.5"/><ellipse cx="323.5" cy="447.5" fill="#ADD1B2" rx="11" ry="11" style="stroke: #A80036; stroke-width: 1.0;"/><path d="M326.4688,453.1406 Q325.8906,453.4375 325.25,453.5781 Q324.6094,453.7344 323.9063,453.7344 Q321.4063,453.7344 320.0781,452.0938 Q318.7656,450.4375 318.7656,447.3125 Q318.7656,444.1875 320.0781,442.5313 Q321.4063,440.875 323.9063,440.875 Q324.6094,440.875 325.25,441.0313 Q325.9063,441.1875 326.4688,441.4844 L326.4688,444.2031 Q325.8438,443.625 325.25,443.3594 Q324.6563,443.0781 324.0313,443.0781 Q322.6875,443.0781 322,444.1563 Q321.3125,445.2188 321.3125,447.3125 Q321.3125,449.4063 322,450.4844 Q322.6875,451.5469 324.0313,451.5469 Q324.6563,451.5469 325.25,451.2813 Q325.8438,451 326.4688,450.4219 L326.4688,453.1406 Z "/><text fill="#000000" font-family="sans-serif" font-size="12" lengthAdjust="spacingAndGlyphs" textLength="127" x="337.5" y="451.6543">OutputConfiguration</text><line style="stroke: #A80036; stroke-width: 1.5;" x1="309.5" x2="466.5" y1="463.5" y2="463.5"/><ellipse cx="319.5" cy="475.4023" fill="none" rx="3" ry="3" style="stroke: #038048; stroke-width: 1.0;"/><text fill="#000000" font-family="sans-serif" font-size="11" lengthAdjust="spacingAndGlyphs" textLength="110" x="328.5" y="477.7104">topic_name : string</text><line style="stroke: #A80036; stroke-width: 1.5;" x1="309.5" x2="466.5" y1="484.3047" y2="484.3047"/><!--class FusionNode--><rect fill="#FEFECE" filter="url(#f189qr2x3mqzdk)" height="150.4375" id="FusionNode" style="stroke: #A80036; stroke-width: 1.5;" width="544" x="22" y="215"/><ellipse cx="252.75" cy="231" fill="#ADD1B2" rx="11" ry="11" style="stroke: #A80036; stroke-width: 1.0;"/><path d="M255.7188,236.6406 Q255.1406,236.9375 254.5,237.0781 Q253.8594,237.2344 253.1563,237.2344 Q250.6563,237.2344 249.3281,235.5938 Q248.0156,233.9375 248.0156,230.8125 Q248.0156,227.6875 249.3281,226.0313 Q250.6563,224.375 253.1563,224.375 Q253.8594,224.375 254.5,224.5313 Q255.1563,224.6875 255.7188,224.9844 L255.7188,227.7031 Q255.0938,227.125 254.5,226.8594 Q253.9063,226.5781 253.2813,226.5781 Q251.9375,226.5781 251.25,227.6563 Q250.5625,228.7188 250.5625,230.8125 Q250.5625,232.9063 251.25,233.9844 Q251.9375,235.0469 253.2813,235.0469 Q253.9063,235.0469 254.5,234.7813 Q255.0938,234.5 255.7188,233.9219 L255.7188,236.6406 Z "/><text fill="#000000" font-family="sans-serif" font-size="12" lengthAdjust="spacingAndGlyphs" textLength="74" x="273.25" y="235.1543">FusionNode</text><line style="stroke: #A80036; stroke-width: 1.5;" x1="23" x2="565" y1="247" y2="247"/><rect fill="none" height="6" style="stroke: #C82930; stroke-width: 1.0;" width="6" x="30" y="255.9023"/><text fill="#000000" font-family="sans-serif" font-size="11" lengthAdjust="spacingAndGlyphs" textLength="145" x="42" y="261.2104">operation_frame_ : string</text><rect fill="none" height="6" style="stroke: #C82930; stroke-width: 1.0;" width="6" x="30" y="268.707"/><text fill="#000000" font-family="sans-serif" font-size="11" lengthAdjust="spacingAndGlyphs" textLength="257" x="42" y="274.0151">transform_listener_ : ros::TransformListener</text><rect fill="none" height="6" style="stroke: #C82930; stroke-width: 1.0;" width="6" x="30" y="281.5117"/><text fill="#000000" font-family="sans-serif" font-size="11" lengthAdjust="spacingAndGlyphs" textLength="218" x="42" y="286.8198">subscribers_ : list&lt; ros::Subscriber &gt;</text><rect fill="none" height="6" style="stroke: #C82930; stroke-width: 1.0;" width="6" x="30" y="294.3164"/><text fill="#000000" font-family="sans-serif" font-size="11" lengthAdjust="spacingAndGlyphs" textLength="159" x="42" y="299.6245">subscriber_ : ros::Publisher</text><line style="stroke: #A80036; stroke-width: 1.5;" x1="23" x2="565" y1="306.2188" y2="306.2188"/><ellipse cx="33" cy="318.1211" fill="#84BE84" rx="3" ry="3" style="stroke: #038048; stroke-width: 1.0;"/><text fill="#000000" font-family="sans-serif" font-size="11" lengthAdjust="spacingAndGlyphs" textLength="32" x="42" y="320.4292">spin()</text><rect fill="#F24D5C" height="6" style="stroke: #C82930; stroke-width: 1.0;" width="6" x="30" y="327.9258"/><text fill="#000000" font-family="sans-serif" font-size="11" lengthAdjust="spacingAndGlyphs" textLength="288" x="42" y="333.2339">onObjectsCallback( perception_kit_msgs::Objects )</text><rect fill="#F24D5C" height="6" style="stroke: #C82930; stroke-width: 1.0;" width="6" x="30" y="340.7305"/><text fill="#000000" font-family="sans-serif" font-size="11" lengthAdjust="spacingAndGlyphs" textLength="226" x="42" y="346.0386">publishObjects( const ros::TimerEvent )</text><rect fill="#F24D5C" height="6" style="stroke: #C82930; stroke-width: 1.0;" width="6" x="30" y="353.5352"/><text fill="#000000" font-family="sans-serif" font-size="11" lengthAdjust="spacingAndGlyphs" textLength="518" x="42" y="358.8433">toBaseLink( perception_kit_msgs::Object::Position ) : perception_kit_msgs::Object::Position</text><!--link FusionInterfacePreprocessor to FusionInterface--><path d="M968.25,175.0157 C968.25,175.0157 968.25,220.7635 968.25,220.7635 " fill="none" id="FusionInterfacePreprocessor-FusionInterface" style="stroke: #A80036; stroke-width: 1.0;"/><polygon fill="none" points="961.2501,175.0158,968.25,155.0157,975.2501,175.0157,961.2501,175.0158" style="stroke: #A80036; stroke-width: 1.0;"/><!--link FusionInterfacePostprocessor to FusionInterface--><path d="M744.75,162.3409 C744.75,162.3409 744.75,220.9835 744.75,220.9835 " fill="none" id="FusionInterfacePostprocessor-FusionInterface" style="stroke: #A80036; stroke-width: 1.0;"/><polygon fill="none" points="737.7501,162.3409,744.75,142.3409,751.7501,162.3408,737.7501,162.3409" style="stroke: #A80036; stroke-width: 1.0;"/><!--link FusionNode to FusionInterface--><path d="M579.2719,290 C579.2719,290 600.9379,290 600.9379,290 " fill="none" id="FusionNode-FusionInterface" style="stroke: #A80036; stroke-width: 1.0;"/><polygon fill="#A80036" points="566.2719,290,572.2719,294,578.2719,290,572.2719,286,566.2719,290" style="stroke: #A80036; stroke-width: 1.0;"/><!--link FusionNode to InputConfiguration--><path d="M199,378.1915 C199,378.1915 199,424.71 199,424.71 " fill="none" id="FusionNode-InputConfiguration" style="stroke: #A80036; stroke-width: 1.0;"/><polygon fill="#A80036" points="199,365.1915,195,371.1915,199,377.1915,203,371.1915,199,365.1915" style="stroke: #A80036; stroke-width: 1.0;"/><text fill="#000000" font-family="sans-serif" font-size="13" lengthAdjust="spacingAndGlyphs" textLength="19" x="178.3078" y="413.8453">NS</text><!--link FusionNode to OutputConfiguration--><path d="M388,378.1915 C388,378.1915 388,431.3823 388,431.3823 " fill="none" id="FusionNode-OutputConfiguration" style="stroke: #A80036; stroke-width: 1.0;"/><polygon fill="#A80036" points="388,365.1915,384,371.1915,388,377.1915,392,371.1915,388,365.1915" style="stroke: #A80036; stroke-width: 1.0;"/><!--
@startuml(id=ros) TrackToTrackFusion_ROS

skinparam linetype ortho


skinparam linetype ortho

package fusion <<Rectangle>> {
    class FusionInterfacePreprocessor {
        + preprocess(perception_kit_msgs::Objects)
        + registerPreprocessor( ObjectListProcessor )
        + registerPreprocessor( SingleObjectProcessor )
        + addInputData( perception_kit_msgs::Objects )
        # getData() : NonCopyableObjects
    '    - data : perception_kit_msgs::Objects
    '    - preprocessed_data : NotCopyableObjects
    }

    class FusionInterfacePostprocessor {
        + registerPreprocessor( ObjectListProcessor )
        + registerPreprocessor( SingleObjectProcessor )
        # postprocess( perception_kit_msgs::Objects )
    }

    class FusionInterface {
        + init( set<SensorModalities> , ObjectFusionExecuter , CostFunction )
        + fuse( Time ) : perception_kit_msgs:Objects
        + setPredictor( ObjectsPredictor )
        - predict( NonCopyableObjectsContainer, ros::Time )
        - fusion_executer_ : ObjectFusionExecuter
        - cost_function_ : CostFunction
        - predictor_ : ObjectsPredictor
    }

    FusionInterfacePreprocessor  <|- -  FusionInterface
    FusionInterfacePostprocessor <|- -  FusionInterface
}

package fusion::ros <<Rectangle>> {
    class InputConfiguration {
        + name : string
        + topic_name : string
    }
    
    class OutputConfiguration {
        + topic_name : string
    }

    class FusionNode {
        + spin()
        - onObjectsCallback( perception_kit_msgs::Objects )
        - publishObjects( const ros::TimerEvent )
        - toBaseLink( perception_kit_msgs::Object::Position ) : perception_kit_msgs::Object::Position

        - operation_frame_ : string
        - transform_listener_ : ros::TransformListener
        - subscribers_ : list< ros::Subscriber >
        - subscriber_ : ros::Publisher
    }

    FusionNode *-right- FusionInterface
    FusionNode *- - "NS" InputConfiguration
    FusionNode *- - OutputConfiguration

}


@enduml

PlantUML version 1.2017.15(Mon Jul 03 18:45:34 CEST 2017)
(GPL source distribution)
Java Runtime: OpenJDK Runtime Environment
JVM: OpenJDK 64-Bit Server VM
Java Version: 11.0.9.1+1-Ubuntu-0ubuntu1.18.04
Operating System: Linux
OS Version: 4.15.0-130-generic
Default Encoding: UTF-8
Language: en
Country: US
--></g></svg>