<?xml version="1.0" encoding="UTF-8" standalone="no"?><svg xmlns="http://www.w3.org/2000/svg" xmlns:xlink="http://www.w3.org/1999/xlink" contentScriptType="application/ecmascript" contentStyleType="text/css" height="1343px" preserveAspectRatio="none" style="width:1037px;height:1343px;" version="1.1" viewBox="0 0 1037 1343" width="1037px" zoomAndPan="magnify"><defs><filter height="300%" id="f1s49u310hyiv1" width="300%" x="-1" y="-1"><feGaussianBlur result="blurOut" stdDeviation="2.0"/><feColorMatrix in="blurOut" result="blurOut2" type="matrix" values="0 0 0 0 0 0 0 0 0 0 0 0 0 0 0 0 0 0 .4 0"/><feOffset dx="4.0" dy="4.0" in="blurOut2" result="blurOut3"/><feBlend in="SourceGraphic" in2="blurOut3" mode="normal"/></filter></defs><g><!--cluster fusion--><rect fill="#FFFFFF" filter="url(#f1s49u310hyiv1)" height="1316" style="stroke: #000000; stroke-width: 2.0;" width="827" x="14" y="16"/><text fill="#000000" font-family="sans-serif" font-size="14" font-weight="bold" lengthAdjust="spacingAndGlyphs" textLength="49" x="403" y="30.9951">fusion</text><!--cluster internal_data_structures--><rect fill="#FFFFFF" filter="url(#f1s49u310hyiv1)" height="791" style="stroke: #000000; stroke-width: 2.0;" width="811" x="22" y="533"/><text fill="#000000" font-family="sans-serif" font-size="14" font-weight="bold" lengthAdjust="spacingAndGlyphs" textLength="191" x="332" y="547.9951">internal_data_structures</text><!--cluster perception_kit_msgs--><rect fill="#FFFFFF" filter="url(#f1s49u310hyiv1)" height="301" style="stroke: #000000; stroke-width: 2.0;" width="177" x="849" y="790"/><text fill="#000000" font-family="sans-serif" font-size="14" font-weight="bold" lengthAdjust="spacingAndGlyphs" textLength="161" x="857" y="804.9951">perception_kit_msgs</text><!--class FusionInterfacePreprocessor--><rect fill="#FEFECE" filter="url(#f1s49u310hyiv1)" height="112.0234" id="FusionInterfacePreprocessor" style="stroke: #A80036; stroke-width: 1.5;" width="293" x="430.5" y="43"/><ellipse cx="482.25" cy="59" fill="#ADD1B2" rx="11" ry="11" style="stroke: #A80036; stroke-width: 1.0;"/><path d="M485.2188,64.6406 Q484.6406,64.9375 484,65.0781 Q483.3594,65.2344 482.6563,65.2344 Q480.1563,65.2344 478.8281,63.5938 Q477.5156,61.9375 477.5156,58.8125 Q477.5156,55.6875 478.8281,54.0313 Q480.1563,52.375 482.6563,52.375 Q483.3594,52.375 484,52.5313 Q484.6563,52.6875 485.2188,52.9844 L485.2188,55.7031 Q484.5938,55.125 484,54.8594 Q483.4063,54.5781 482.7813,54.5781 Q481.4375,54.5781 480.75,55.6563 Q480.0625,56.7188 480.0625,58.8125 Q480.0625,60.9063 480.75,61.9844 Q481.4375,63.0469 482.7813,63.0469 Q483.4063,63.0469 484,62.7813 Q484.5938,62.5 485.2188,61.9219 L485.2188,64.6406 Z "/><text fill="#000000" font-family="sans-serif" font-size="12" lengthAdjust="spacingAndGlyphs" textLength="181" x="502.75" y="63.1543">FusionInterfacePreprocessor</text><line style="stroke: #A80036; stroke-width: 1.5;" x1="431.5" x2="722.5" y1="75" y2="75"/><line style="stroke: #A80036; stroke-width: 1.5;" x1="431.5" x2="722.5" y1="83" y2="83"/><ellipse cx="441.5" cy="94.9023" fill="#84BE84" rx="3" ry="3" style="stroke: #038048; stroke-width: 1.0;"/><text fill="#000000" font-family="sans-serif" font-size="11" lengthAdjust="spacingAndGlyphs" textLength="241" x="450.5" y="97.2104">preprocess(perception_kit_msgs::Objects)</text><ellipse cx="441.5" cy="107.707" fill="#84BE84" rx="3" ry="3" style="stroke: #038048; stroke-width: 1.0;"/><text fill="#000000" font-family="sans-serif" font-size="11" lengthAdjust="spacingAndGlyphs" textLength="252" x="450.5" y="110.0151">registerPreprocessor( ObjectListProcessor )</text><ellipse cx="441.5" cy="120.5117" fill="#84BE84" rx="3" ry="3" style="stroke: #038048; stroke-width: 1.0;"/><text fill="#000000" font-family="sans-serif" font-size="11" lengthAdjust="spacingAndGlyphs" textLength="267" x="450.5" y="122.8198">registerPreprocessor( SingleObjectProcessor )</text><ellipse cx="441.5" cy="133.3164" fill="#84BE84" rx="3" ry="3" style="stroke: #038048; stroke-width: 1.0;"/><text fill="#000000" font-family="sans-serif" font-size="11" lengthAdjust="spacingAndGlyphs" textLength="259" x="450.5" y="135.6245">addInputData( perception_kit_msgs::Objects )</text><polygon fill="#FFFF44" points="441.5,141.1211,445.5,145.1211,441.5,149.1211,437.5,145.1211" style="stroke: #B38D22; stroke-width: 1.0;"/><text fill="#000000" font-family="sans-serif" font-size="11" lengthAdjust="spacingAndGlyphs" textLength="181" x="450.5" y="148.4292">getData() : NonCopyableObjects</text><!--class FusionInterfacePostprocessor--><rect fill="#FEFECE" filter="url(#f1s49u310hyiv1)" height="86.4141" id="FusionInterfacePostprocessor" style="stroke: #A80036; stroke-width: 1.5;" width="293" x="102.5" y="56"/><ellipse cx="150.75" cy="72" fill="#ADD1B2" rx="11" ry="11" style="stroke: #A80036; stroke-width: 1.0;"/><path d="M153.7188,77.6406 Q153.1406,77.9375 152.5,78.0781 Q151.8594,78.2344 151.1563,78.2344 Q148.6563,78.2344 147.3281,76.5938 Q146.0156,74.9375 146.0156,71.8125 Q146.0156,68.6875 147.3281,67.0313 Q148.6563,65.375 151.1563,65.375 Q151.8594,65.375 152.5,65.5313 Q153.1563,65.6875 153.7188,65.9844 L153.7188,68.7031 Q153.0938,68.125 152.5,67.8594 Q151.9063,67.5781 151.2813,67.5781 Q149.9375,67.5781 149.25,68.6563 Q148.5625,69.7188 148.5625,71.8125 Q148.5625,73.9063 149.25,74.9844 Q149.9375,76.0469 151.2813,76.0469 Q151.9063,76.0469 152.5,75.7813 Q153.0938,75.5 153.7188,74.9219 L153.7188,77.6406 Z "/><text fill="#000000" font-family="sans-serif" font-size="12" lengthAdjust="spacingAndGlyphs" textLength="188" x="171.25" y="76.1543">FusionInterfacePostprocessor</text><line style="stroke: #A80036; stroke-width: 1.5;" x1="103.5" x2="394.5" y1="88" y2="88"/><line style="stroke: #A80036; stroke-width: 1.5;" x1="103.5" x2="394.5" y1="96" y2="96"/><ellipse cx="113.5" cy="107.9023" fill="#84BE84" rx="3" ry="3" style="stroke: #038048; stroke-width: 1.0;"/><text fill="#000000" font-family="sans-serif" font-size="11" lengthAdjust="spacingAndGlyphs" textLength="252" x="122.5" y="110.2104">registerPreprocessor( ObjectListProcessor )</text><ellipse cx="113.5" cy="120.707" fill="#84BE84" rx="3" ry="3" style="stroke: #038048; stroke-width: 1.0;"/><text fill="#000000" font-family="sans-serif" font-size="11" lengthAdjust="spacingAndGlyphs" textLength="267" x="122.5" y="123.0151">registerPreprocessor( SingleObjectProcessor )</text><polygon fill="#FFFF44" points="113.5,128.5117,117.5,132.5117,113.5,136.5117,109.5,132.5117" style="stroke: #B38D22; stroke-width: 1.0;"/><text fill="#000000" font-family="sans-serif" font-size="11" lengthAdjust="spacingAndGlyphs" textLength="255" x="122.5" y="135.8198">postprocess( perception_kit_msgs::Objects )</text><!--class FusionInterface--><rect fill="#FEFECE" filter="url(#f1s49u310hyiv1)" height="137.6328" id="FusionInterface" style="stroke: #A80036; stroke-width: 1.5;" width="412" x="187" y="278"/><ellipse cx="340.25" cy="294" fill="#ADD1B2" rx="11" ry="11" style="stroke: #A80036; stroke-width: 1.0;"/><path d="M343.2188,299.6406 Q342.6406,299.9375 342,300.0781 Q341.3594,300.2344 340.6563,300.2344 Q338.1563,300.2344 336.8281,298.5938 Q335.5156,296.9375 335.5156,293.8125 Q335.5156,290.6875 336.8281,289.0313 Q338.1563,287.375 340.6563,287.375 Q341.3594,287.375 342,287.5313 Q342.6563,287.6875 343.2188,287.9844 L343.2188,290.7031 Q342.5938,290.125 342,289.8594 Q341.4063,289.5781 340.7813,289.5781 Q339.4375,289.5781 338.75,290.6563 Q338.0625,291.7188 338.0625,293.8125 Q338.0625,295.9063 338.75,296.9844 Q339.4375,298.0469 340.7813,298.0469 Q341.4063,298.0469 342,297.7813 Q342.5938,297.5 343.2188,296.9219 L343.2188,299.6406 Z "/><text fill="#000000" font-family="sans-serif" font-size="12" lengthAdjust="spacingAndGlyphs" textLength="97" x="360.75" y="298.1543">FusionInterface</text><line style="stroke: #A80036; stroke-width: 1.5;" x1="188" x2="598" y1="310" y2="310"/><rect fill="none" height="6" style="stroke: #C82930; stroke-width: 1.0;" width="6" x="195" y="318.9023"/><text fill="#000000" font-family="sans-serif" font-size="11" lengthAdjust="spacingAndGlyphs" textLength="230" x="207" y="324.2104">fusion_executer_ : ObjectFusionExecuter</text><rect fill="none" height="6" style="stroke: #C82930; stroke-width: 1.0;" width="6" x="195" y="331.707"/><text fill="#000000" font-family="sans-serif" font-size="11" lengthAdjust="spacingAndGlyphs" textLength="166" x="207" y="337.0151">cost_function_ : CostFunction</text><rect fill="none" height="6" style="stroke: #C82930; stroke-width: 1.0;" width="6" x="195" y="344.5117"/><text fill="#000000" font-family="sans-serif" font-size="11" lengthAdjust="spacingAndGlyphs" textLength="163" x="207" y="349.8198">predictor_ : ObjectsPredictor</text><line style="stroke: #A80036; stroke-width: 1.5;" x1="188" x2="598" y1="356.4141" y2="356.4141"/><ellipse cx="198" cy="368.3164" fill="#84BE84" rx="3" ry="3" style="stroke: #038048; stroke-width: 1.0;"/><text fill="#000000" font-family="sans-serif" font-size="11" lengthAdjust="spacingAndGlyphs" textLength="386" x="207" y="370.6245">init( set&lt;SensorModalities&gt; , ObjectFusionExecuter , CostFunction )</text><ellipse cx="198" cy="381.1211" fill="#84BE84" rx="3" ry="3" style="stroke: #038048; stroke-width: 1.0;"/><text fill="#000000" font-family="sans-serif" font-size="11" lengthAdjust="spacingAndGlyphs" textLength="245" x="207" y="383.4292">fuse( Time ) : perception_kit_msgs:Objects</text><ellipse cx="198" cy="393.9258" fill="#84BE84" rx="3" ry="3" style="stroke: #038048; stroke-width: 1.0;"/><text fill="#000000" font-family="sans-serif" font-size="11" lengthAdjust="spacingAndGlyphs" textLength="179" x="207" y="396.2339">setPredictor( ObjectsPredictor )</text><rect fill="#F24D5C" height="6" style="stroke: #C82930; stroke-width: 1.0;" width="6" x="195" y="403.7305"/><text fill="#000000" font-family="sans-serif" font-size="11" lengthAdjust="spacingAndGlyphs" textLength="290" x="207" y="409.0386">predict( NonCopyableObjectsContainer, ros::Time )</text><!--class TraceStorage--><rect fill="#FEFECE" filter="url(#f1s49u310hyiv1)" height="66.7422" id="TraceStorage" style="stroke: #A80036; stroke-width: 1.5;" width="185" x="29.5" y="560"/><ellipse cx="75.25" cy="578.9688" fill="#FF7700" rx="11" ry="11" style="stroke: #A80036; stroke-width: 1.0;"/><path d="M74.7344,579.5313 Q72.875,578.8281 72.2188,578.0625 Q71.5781,577.2813 71.5781,575.9688 Q71.5781,574.2813 72.6563,573.3125 Q73.7344,572.3438 75.6094,572.3438 Q76.4688,572.3438 77.3125,572.5469 Q78.1719,572.7344 79.0156,573.125 L79.0156,575.5156 Q78.2344,574.9531 77.4063,574.6719 Q76.5938,574.375 75.7969,574.375 Q74.9219,574.375 74.4375,574.7344 Q73.9688,575.0938 73.9688,575.75 Q73.9688,576.2656 74.3125,576.6094 Q74.6563,576.9375 75.75,577.3438 L76.8125,577.75 Q78.2969,578.2969 79,579.2031 Q79.7188,580.1094 79.7188,581.4844 Q79.7188,583.3594 78.6094,584.2813 Q77.5,585.2031 75.25,585.2031 Q74.3281,585.2031 73.4063,584.9844 Q72.4844,584.7656 71.625,584.3438 L71.625,581.8125 Q72.5938,582.5 73.5156,582.8438 Q74.4375,583.1875 75.3281,583.1875 Q76.2344,583.1875 76.7344,582.7813 Q77.2344,582.3594 77.2344,581.625 Q77.2344,581.0625 76.8906,580.6563 Q76.5625,580.2344 75.9375,579.9844 L74.7344,579.5313 Z "/><text fill="#000000" font-family="sans-serif" font-size="12" font-style="italic" lengthAdjust="spacingAndGlyphs" textLength="50" x="113.25" y="576.1387">«Static»</text><text fill="#000000" font-family="sans-serif" font-size="12" lengthAdjust="spacingAndGlyphs" textLength="85" x="95.75" y="590.1074">TraceStorage</text><line style="stroke: #A80036; stroke-width: 1.5;" x1="30.5" x2="213.5" y1="597.9375" y2="597.9375"/><line style="stroke: #A80036; stroke-width: 1.5;" x1="30.5" x2="213.5" y1="605.9375" y2="605.9375"/><ellipse cx="40.5" cy="617.8398" fill="#84BE84" rx="3" ry="3" style="stroke: #038048; stroke-width: 1.0;"/><text fill="#000000" font-family="sans-serif" font-size="11" lengthAdjust="spacingAndGlyphs" text-decoration="underline" textLength="159" x="49.5" y="620.1479">getIdFromTrace( Trace ) : Id</text><line style="stroke: #000000; stroke-width: 1.0;" x1="49.5" x2="208.5" y1="622.1479" y2="622.1479"/><!--class NonCopyableObjects--><rect fill="#FEFECE" filter="url(#f1s49u310hyiv1)" height="48" id="NonCopyableObjects" style="stroke: #A80036; stroke-width: 1.5;" width="161" x="663.5" y="569.5"/><ellipse cx="678.5" cy="585.5" fill="#ADD1B2" rx="11" ry="11" style="stroke: #A80036; stroke-width: 1.0;"/><path d="M681.4688,591.1406 Q680.8906,591.4375 680.25,591.5781 Q679.6094,591.7344 678.9063,591.7344 Q676.4063,591.7344 675.0781,590.0938 Q673.7656,588.4375 673.7656,585.3125 Q673.7656,582.1875 675.0781,580.5313 Q676.4063,578.875 678.9063,578.875 Q679.6094,578.875 680.25,579.0313 Q680.9063,579.1875 681.4688,579.4844 L681.4688,582.2031 Q680.8438,581.625 680.25,581.3594 Q679.6563,581.0781 679.0313,581.0781 Q677.6875,581.0781 677,582.1563 Q676.3125,583.2188 676.3125,585.3125 Q676.3125,587.4063 677,588.4844 Q677.6875,589.5469 679.0313,589.5469 Q679.6563,589.5469 680.25,589.2813 Q680.8438,589 681.4688,588.4219 L681.4688,591.1406 Z "/><text fill="#000000" font-family="sans-serif" font-size="12" lengthAdjust="spacingAndGlyphs" textLength="129" x="692.5" y="589.6543">NonCopyableObjects</text><line style="stroke: #A80036; stroke-width: 1.5;" x1="664.5" x2="823.5" y1="601.5" y2="601.5"/><line style="stroke: #A80036; stroke-width: 1.5;" x1="664.5" x2="823.5" y1="609.5" y2="609.5"/><!--class ObjectsWithTrace--><rect fill="#FEFECE" filter="url(#f1s49u310hyiv1)" height="48" id="ObjectsWithTrace" style="stroke: #A80036; stroke-width: 1.5;" width="141" x="620.5" y="926"/><ellipse cx="635.5" cy="942" fill="#ADD1B2" rx="11" ry="11" style="stroke: #A80036; stroke-width: 1.0;"/><path d="M638.4688,947.6406 Q637.8906,947.9375 637.25,948.0781 Q636.6094,948.2344 635.9063,948.2344 Q633.4063,948.2344 632.0781,946.5938 Q630.7656,944.9375 630.7656,941.8125 Q630.7656,938.6875 632.0781,937.0313 Q633.4063,935.375 635.9063,935.375 Q636.6094,935.375 637.25,935.5313 Q637.9063,935.6875 638.4688,935.9844 L638.4688,938.7031 Q637.8438,938.125 637.25,937.8594 Q636.6563,937.5781 636.0313,937.5781 Q634.6875,937.5781 634,938.6563 Q633.3125,939.7188 633.3125,941.8125 Q633.3125,943.9063 634,944.9844 Q634.6875,946.0469 636.0313,946.0469 Q636.6563,946.0469 637.25,945.7813 Q637.8438,945.5 638.4688,944.9219 L638.4688,947.6406 Z "/><text fill="#000000" font-family="sans-serif" font-size="12" lengthAdjust="spacingAndGlyphs" textLength="109" x="649.5" y="946.1543">ObjectsWithTrace</text><line style="stroke: #A80036; stroke-width: 1.5;" x1="621.5" x2="760.5" y1="958" y2="958"/><line style="stroke: #A80036; stroke-width: 1.5;" x1="621.5" x2="760.5" y1="966" y2="966"/><!--class Trace--><rect fill="#FEFECE" filter="url(#f1s49u310hyiv1)" height="48" id="Trace" style="stroke: #A80036; stroke-width: 1.5;" width="67" x="657.5" y="1268"/><ellipse cx="672.5" cy="1284" fill="#ADD1B2" rx="11" ry="11" style="stroke: #A80036; stroke-width: 1.0;"/><path d="M675.4688,1289.6406 Q674.8906,1289.9375 674.25,1290.0781 Q673.6094,1290.2344 672.9063,1290.2344 Q670.4063,1290.2344 669.0781,1288.5938 Q667.7656,1286.9375 667.7656,1283.8125 Q667.7656,1280.6875 669.0781,1279.0313 Q670.4063,1277.375 672.9063,1277.375 Q673.6094,1277.375 674.25,1277.5313 Q674.9063,1277.6875 675.4688,1277.9844 L675.4688,1280.7031 Q674.8438,1280.125 674.25,1279.8594 Q673.6563,1279.5781 673.0313,1279.5781 Q671.6875,1279.5781 671,1280.6563 Q670.3125,1281.7188 670.3125,1283.8125 Q670.3125,1285.9063 671,1286.9844 Q671.6875,1288.0469 673.0313,1288.0469 Q673.6563,1288.0469 674.25,1287.7813 Q674.8438,1287.5 675.4688,1286.9219 L675.4688,1289.6406 Z "/><text fill="#000000" font-family="sans-serif" font-size="12" lengthAdjust="spacingAndGlyphs" textLength="35" x="686.5" y="1288.1543">Trace</text><line style="stroke: #A80036; stroke-width: 1.5;" x1="658.5" x2="723.5" y1="1300" y2="1300"/><line style="stroke: #A80036; stroke-width: 1.5;" x1="658.5" x2="723.5" y1="1308" y2="1308"/><!--class CostCell--><rect fill="#FEFECE" filter="url(#f1s49u310hyiv1)" height="48" id="CostCell" style="stroke: #A80036; stroke-width: 1.5;" width="82" x="275" y="926"/><ellipse cx="290" cy="942" fill="#ADD1B2" rx="11" ry="11" style="stroke: #A80036; stroke-width: 1.0;"/><path d="M292.9688,947.6406 Q292.3906,947.9375 291.75,948.0781 Q291.1094,948.2344 290.4063,948.2344 Q287.9063,948.2344 286.5781,946.5938 Q285.2656,944.9375 285.2656,941.8125 Q285.2656,938.6875 286.5781,937.0313 Q287.9063,935.375 290.4063,935.375 Q291.1094,935.375 291.75,935.5313 Q292.4063,935.6875 292.9688,935.9844 L292.9688,938.7031 Q292.3438,938.125 291.75,937.8594 Q291.1563,937.5781 290.5313,937.5781 Q289.1875,937.5781 288.5,938.6563 Q287.8125,939.7188 287.8125,941.8125 Q287.8125,943.9063 288.5,944.9844 Q289.1875,946.0469 290.5313,946.0469 Q291.1563,946.0469 291.75,945.7813 Q292.3438,945.5 292.9688,944.9219 L292.9688,947.6406 Z "/><text fill="#000000" font-family="sans-serif" font-size="12" lengthAdjust="spacingAndGlyphs" textLength="50" x="304" y="946.1543">CostCell</text><line style="stroke: #A80036; stroke-width: 1.5;" x1="276" x2="356" y1="958" y2="958"/><line style="stroke: #A80036; stroke-width: 1.5;" x1="276" x2="356" y1="966" y2="966"/><!--class CostCell::LMatrix--><rect fill="#FEFECE" filter="url(#f1s49u310hyiv1)" height="48" id="CostCell::LMatrix" style="stroke: #A80036; stroke-width: 1.5;" width="133" x="249.5" y="569.5"/><ellipse cx="264.5" cy="585.5" fill="#ADD1B2" rx="11" ry="11" style="stroke: #A80036; stroke-width: 1.0;"/><path d="M267.4688,591.1406 Q266.8906,591.4375 266.25,591.5781 Q265.6094,591.7344 264.9063,591.7344 Q262.4063,591.7344 261.0781,590.0938 Q259.7656,588.4375 259.7656,585.3125 Q259.7656,582.1875 261.0781,580.5313 Q262.4063,578.875 264.9063,578.875 Q265.6094,578.875 266.25,579.0313 Q266.9063,579.1875 267.4688,579.4844 L267.4688,582.2031 Q266.8438,581.625 266.25,581.3594 Q265.6563,581.0781 265.0313,581.0781 Q263.6875,581.0781 263,582.1563 Q262.3125,583.2188 262.3125,585.3125 Q262.3125,587.4063 263,588.4844 Q263.6875,589.5469 265.0313,589.5469 Q265.6563,589.5469 266.25,589.2813 Q266.8438,589 267.4688,588.4219 L267.4688,591.1406 Z "/><text fill="#000000" font-family="sans-serif" font-size="12" lengthAdjust="spacingAndGlyphs" textLength="101" x="278.5" y="589.6543">CostCell::LMatrix</text><line style="stroke: #A80036; stroke-width: 1.5;" x1="250.5" x2="381.5" y1="601.5" y2="601.5"/><line style="stroke: #A80036; stroke-width: 1.5;" x1="250.5" x2="381.5" y1="609.5" y2="609.5"/><!--class ObjectsWithTrace::Container--><rect fill="#FEFECE" filter="url(#f1s49u310hyiv1)" height="48" id="ObjectsWithTrace::Container" style="stroke: #A80036; stroke-width: 1.5;" width="210" x="418" y="569.5"/><ellipse cx="433" cy="585.5" fill="#ADD1B2" rx="11" ry="11" style="stroke: #A80036; stroke-width: 1.0;"/><path d="M435.9688,591.1406 Q435.3906,591.4375 434.75,591.5781 Q434.1094,591.7344 433.4063,591.7344 Q430.9063,591.7344 429.5781,590.0938 Q428.2656,588.4375 428.2656,585.3125 Q428.2656,582.1875 429.5781,580.5313 Q430.9063,578.875 433.4063,578.875 Q434.1094,578.875 434.75,579.0313 Q435.4063,579.1875 435.9688,579.4844 L435.9688,582.2031 Q435.3438,581.625 434.75,581.3594 Q434.1563,581.0781 433.5313,581.0781 Q432.1875,581.0781 431.5,582.1563 Q430.8125,583.2188 430.8125,585.3125 Q430.8125,587.4063 431.5,588.4844 Q432.1875,589.5469 433.5313,589.5469 Q434.1563,589.5469 434.75,589.2813 Q435.3438,589 435.9688,588.4219 L435.9688,591.1406 Z "/><text fill="#000000" font-family="sans-serif" font-size="12" lengthAdjust="spacingAndGlyphs" textLength="178" x="447" y="589.6543">ObjectsWithTrace::Container</text><line style="stroke: #A80036; stroke-width: 1.5;" x1="419" x2="627" y1="601.5" y2="601.5"/><line style="stroke: #A80036; stroke-width: 1.5;" x1="419" x2="627" y1="609.5" y2="609.5"/><!--class Row--><rect fill="#FEFECE" filter="url(#f1s49u310hyiv1)" height="48" id="Row" style="stroke: #A80036; stroke-width: 1.5;" width="57" x="338.5" y="1268"/><ellipse cx="353.5" cy="1284" fill="#ADD1B2" rx="11" ry="11" style="stroke: #A80036; stroke-width: 1.0;"/><path d="M356.4688,1289.6406 Q355.8906,1289.9375 355.25,1290.0781 Q354.6094,1290.2344 353.9063,1290.2344 Q351.4063,1290.2344 350.0781,1288.5938 Q348.7656,1286.9375 348.7656,1283.8125 Q348.7656,1280.6875 350.0781,1279.0313 Q351.4063,1277.375 353.9063,1277.375 Q354.6094,1277.375 355.25,1277.5313 Q355.9063,1277.6875 356.4688,1277.9844 L356.4688,1280.7031 Q355.8438,1280.125 355.25,1279.8594 Q354.6563,1279.5781 354.0313,1279.5781 Q352.6875,1279.5781 352,1280.6563 Q351.3125,1281.7188 351.3125,1283.8125 Q351.3125,1285.9063 352,1286.9844 Q352.6875,1288.0469 354.0313,1288.0469 Q354.6563,1288.0469 355.25,1287.7813 Q355.8438,1287.5 356.4688,1286.9219 L356.4688,1289.6406 Z "/><text fill="#000000" font-family="sans-serif" font-size="12" lengthAdjust="spacingAndGlyphs" textLength="25" x="367.5" y="1288.1543">Row</text><line style="stroke: #A80036; stroke-width: 1.5;" x1="339.5" x2="394.5" y1="1300" y2="1300"/><line style="stroke: #A80036; stroke-width: 1.5;" x1="339.5" x2="394.5" y1="1308" y2="1308"/><!--class Col--><rect fill="#FEFECE" filter="url(#f1s49u310hyiv1)" height="48" id="Col" style="stroke: #A80036; stroke-width: 1.5;" width="51" x="252.5" y="1268"/><ellipse cx="267.5" cy="1284" fill="#ADD1B2" rx="11" ry="11" style="stroke: #A80036; stroke-width: 1.0;"/><path d="M270.4688,1289.6406 Q269.8906,1289.9375 269.25,1290.0781 Q268.6094,1290.2344 267.9063,1290.2344 Q265.4063,1290.2344 264.0781,1288.5938 Q262.7656,1286.9375 262.7656,1283.8125 Q262.7656,1280.6875 264.0781,1279.0313 Q265.4063,1277.375 267.9063,1277.375 Q268.6094,1277.375 269.25,1277.5313 Q269.9063,1277.6875 270.4688,1277.9844 L270.4688,1280.7031 Q269.8438,1280.125 269.25,1279.8594 Q268.6563,1279.5781 268.0313,1279.5781 Q266.6875,1279.5781 266,1280.6563 Q265.3125,1281.7188 265.3125,1283.8125 Q265.3125,1285.9063 266,1286.9844 Q266.6875,1288.0469 268.0313,1288.0469 Q268.6563,1288.0469 269.25,1287.7813 Q269.8438,1287.5 270.4688,1286.9219 L270.4688,1289.6406 Z "/><text fill="#000000" font-family="sans-serif" font-size="12" lengthAdjust="spacingAndGlyphs" textLength="19" x="281.5" y="1288.1543">Col</text><line style="stroke: #A80036; stroke-width: 1.5;" x1="253.5" x2="302.5" y1="1300" y2="1300"/><line style="stroke: #A80036; stroke-width: 1.5;" x1="253.5" x2="302.5" y1="1308" y2="1308"/><!--class Objects--><rect fill="#FEFECE" filter="url(#f1s49u310hyiv1)" height="48" id="Objects" style="stroke: #A80036; stroke-width: 1.5;" width="79" x="856.5" y="817"/><ellipse cx="871.5" cy="833" fill="#ADD1B2" rx="11" ry="11" style="stroke: #A80036; stroke-width: 1.0;"/><path d="M874.4688,838.6406 Q873.8906,838.9375 873.25,839.0781 Q872.6094,839.2344 871.9063,839.2344 Q869.4063,839.2344 868.0781,837.5938 Q866.7656,835.9375 866.7656,832.8125 Q866.7656,829.6875 868.0781,828.0313 Q869.4063,826.375 871.9063,826.375 Q872.6094,826.375 873.25,826.5313 Q873.9063,826.6875 874.4688,826.9844 L874.4688,829.7031 Q873.8438,829.125 873.25,828.8594 Q872.6563,828.5781 872.0313,828.5781 Q870.6875,828.5781 870,829.6563 Q869.3125,830.7188 869.3125,832.8125 Q869.3125,834.9063 870,835.9844 Q870.6875,837.0469 872.0313,837.0469 Q872.6563,837.0469 873.25,836.7813 Q873.8438,836.5 874.4688,835.9219 L874.4688,838.6406 Z "/><text fill="#000000" font-family="sans-serif" font-size="12" lengthAdjust="spacingAndGlyphs" textLength="47" x="885.5" y="837.1543">Objects</text><line style="stroke: #A80036; stroke-width: 1.5;" x1="857.5" x2="934.5" y1="849" y2="849"/><line style="stroke: #A80036; stroke-width: 1.5;" x1="857.5" x2="934.5" y1="857" y2="857"/><!--class Object--><rect fill="#FEFECE" filter="url(#f1s49u310hyiv1)" height="48" id="Object" style="stroke: #A80036; stroke-width: 1.5;" width="72" x="858" y="1035"/><ellipse cx="873" cy="1051" fill="#ADD1B2" rx="11" ry="11" style="stroke: #A80036; stroke-width: 1.0;"/><path d="M875.9688,1056.6406 Q875.3906,1056.9375 874.75,1057.0781 Q874.1094,1057.2344 873.4063,1057.2344 Q870.9063,1057.2344 869.5781,1055.5938 Q868.2656,1053.9375 868.2656,1050.8125 Q868.2656,1047.6875 869.5781,1046.0313 Q870.9063,1044.375 873.4063,1044.375 Q874.1094,1044.375 874.75,1044.5313 Q875.4063,1044.6875 875.9688,1044.9844 L875.9688,1047.7031 Q875.3438,1047.125 874.75,1046.8594 Q874.1563,1046.5781 873.5313,1046.5781 Q872.1875,1046.5781 871.5,1047.6563 Q870.8125,1048.7188 870.8125,1050.8125 Q870.8125,1052.9063 871.5,1053.9844 Q872.1875,1055.0469 873.5313,1055.0469 Q874.1563,1055.0469 874.75,1054.7813 Q875.3438,1054.5 875.9688,1053.9219 L875.9688,1056.6406 Z "/><text fill="#000000" font-family="sans-serif" font-size="12" lengthAdjust="spacingAndGlyphs" textLength="40" x="887" y="1055.1543">Object</text><line style="stroke: #A80036; stroke-width: 1.5;" x1="859" x2="929" y1="1067" y2="1067"/><line style="stroke: #A80036; stroke-width: 1.5;" x1="859" x2="929" y1="1075" y2="1075"/><!--link FusionInterfacePreprocessor to FusionInterface--><path d="M514.75,175.275 C514.75,175.275 514.75,277.6657 514.75,277.6657 " fill="none" id="FusionInterfacePreprocessor-FusionInterface" style="stroke: #A80036; stroke-width: 1.0;"/><polygon fill="none" points="507.7501,175.2751,514.75,155.275,521.7501,175.275,507.7501,175.2751" style="stroke: #A80036; stroke-width: 1.0;"/><!--link FusionInterfacePostprocessor to FusionInterface--><path d="M291.25,162.1983 C291.25,162.1983 291.25,277.6193 291.25,277.6193 " fill="none" id="FusionInterfacePostprocessor-FusionInterface" style="stroke: #A80036; stroke-width: 1.0;"/><polygon fill="none" points="284.2501,162.1983,291.25,142.1983,298.2501,162.1983,284.2501,162.1983" style="stroke: #A80036; stroke-width: 1.0;"/><!--link Objects to Object--><path d="M894,878.1627 C894,878.1627 894,1034.729 894,1034.729 " fill="none" id="Objects-Object" style="stroke: #A80036; stroke-width: 1.0;"/><polygon fill="#A80036" points="894,865.1627,890,871.1627,894,877.1627,898,871.1627,894,865.1627" style="stroke: #A80036; stroke-width: 1.0;"/><!--link CostCell::LMatrix to CostCell--><path d="M316,630.7234 C316,630.7234 316,925.7433 316,925.7433 " fill="none" id="CostCell::LMatrix-CostCell" style="stroke: #A80036; stroke-width: 1.0;"/><polygon fill="#A80036" points="316,617.7234,312,623.7234,316,629.7234,320,623.7234,316,617.7234" style="stroke: #A80036; stroke-width: 1.0;"/><!--link CostCell to Row--><path d="M347.75,987.0488 C347.75,987.0488 347.75,1267.9778 347.75,1267.9778 " fill="none" id="CostCell-Row" style="stroke: #A80036; stroke-width: 1.0;"/><polygon fill="#A80036" points="347.75,974.0488,343.75,980.0488,347.75,986.0488,351.75,980.0488,347.75,974.0488" style="stroke: #A80036; stroke-width: 1.0;"/><!--link CostCell to Col--><path d="M289.25,987.0488 C289.25,987.0488 289.25,1267.9778 289.25,1267.9778 " fill="none" id="CostCell-Col" style="stroke: #A80036; stroke-width: 1.0;"/><polygon fill="#A80036" points="289.25,974.0488,285.25,980.0488,289.25,986.0488,293.25,980.0488,289.25,974.0488" style="stroke: #A80036; stroke-width: 1.0;"/><!--link ObjectsWithTrace::Container to ObjectsWithTrace--><path d="M624.25,630.7234 C624.25,630.7234 624.25,925.7433 624.25,925.7433 " fill="none" id="ObjectsWithTrace::Container-ObjectsWithTrace" style="stroke: #A80036; stroke-width: 1.0;"/><polygon fill="#A80036" points="624.25,617.7234,620.25,623.7234,624.25,629.7234,628.25,623.7234,624.25,617.7234" style="stroke: #A80036; stroke-width: 1.0;"/><!--link ObjectsWithTrace to Trace--><path d="M691,987.0488 C691,987.0488 691,1267.9778 691,1267.9778 " fill="none" id="ObjectsWithTrace-Trace" style="stroke: #A80036; stroke-width: 1.0;"/><polygon fill="#A80036" points="691,974.0488,687,980.0488,691,986.0488,695,980.0488,691,974.0488" style="stroke: #A80036; stroke-width: 1.0;"/><!--link ObjectsWithTrace to Object--><path d="M743,987.1906 C743,987.1906 743,1059 743,1059 C743,1059 813.1597,1059 857.8317,1059 " fill="none" id="ObjectsWithTrace-Object" style="stroke: #A80036; stroke-width: 1.0;"/><polygon fill="#A80036" points="743,974.1906,739,980.1906,743,986.1906,747,980.1906,743,974.1906" style="stroke: #A80036; stroke-width: 1.0;"/><!--link FusionInterface to NonCopyableObjects--><path d="M599.2444,347 C651.6812,347 693.5,347 693.5,347 C693.5,347 693.5,564.4157 693.5,564.4157 " fill="none" id="FusionInterface-NonCopyableObjects" style="stroke: #A80036; stroke-width: 1.0; stroke-dasharray: 7.0,7.0;"/><polygon fill="#A80036" points="693.5,569.4157,697.5,560.4157,693.5,564.4157,689.5,560.4157,693.5,569.4157" style="stroke: #A80036; stroke-width: 1.0;"/><text fill="#000000" font-family="sans-serif" font-size="13" lengthAdjust="spacingAndGlyphs" textLength="30" x="685" y="490.0669">uses</text><!--link FusionInterface to CostCell::LMatrix--><path d="M316,416.32 C316,416.32 316,564.4791 316,564.4791 " fill="none" id="FusionInterface-CostCell::LMatrix" style="stroke: #A80036; stroke-width: 1.0; stroke-dasharray: 7.0,7.0;"/><polygon fill="#A80036" points="316,569.4791,320,560.4791,316,564.4791,312,560.4791,316,569.4791" style="stroke: #A80036; stroke-width: 1.0;"/><text fill="#000000" font-family="sans-serif" font-size="13" lengthAdjust="spacingAndGlyphs" textLength="30" x="343" y="490.0669">uses</text><!--link FusionInterface to TraceStorage--><path d="M200.75,416.32 C200.75,416.32 200.75,554.731 200.75,554.731 " fill="none" id="FusionInterface-TraceStorage" style="stroke: #A80036; stroke-width: 1.0; stroke-dasharray: 7.0,7.0;"/><polygon fill="#A80036" points="200.75,559.731,204.75,550.731,200.75,554.731,196.75,550.731,200.75,559.731" style="stroke: #A80036; stroke-width: 1.0;"/><text fill="#000000" font-family="sans-serif" font-size="13" lengthAdjust="spacingAndGlyphs" textLength="30" x="182" y="490.0669">uses</text><!--link FusionInterface to ObjectsWithTrace::Container--><path d="M508.5,416.32 C508.5,416.32 508.5,564.4791 508.5,564.4791 " fill="none" id="FusionInterface-ObjectsWithTrace::Container" style="stroke: #A80036; stroke-width: 1.0; stroke-dasharray: 7.0,7.0;"/><polygon fill="#A80036" points="508.5,569.4791,512.5,560.4791,508.5,564.4791,504.5,560.4791,508.5,569.4791" style="stroke: #A80036; stroke-width: 1.0;"/><text fill="#000000" font-family="sans-serif" font-size="13" lengthAdjust="spacingAndGlyphs" textLength="30" x="497" y="490.0669">uses</text><!--link Objects to NonCopyableObjects--><path d="M836.4721,841 C836.4721,841 793,841 793,841 C793,841 793,679.9594 793,617.682 " fill="none" id="Objects-NonCopyableObjects" style="stroke: #A80036; stroke-width: 1.0;"/><polygon fill="none" points="836.4721,833.9999,856.4721,841,836.472,847.9999,836.4721,833.9999" style="stroke: #A80036; stroke-width: 1.0;"/><!--
@startuml(id=fusion_internal) TrackToTrackFusion_FusionInternal

skinparam linetype ortho


skinparam linetype ortho

package fusion <<Rectangle>> {
    class FusionInterfacePreprocessor {
        + preprocess(perception_kit_msgs::Objects)
        + registerPreprocessor( ObjectListProcessor )
        + registerPreprocessor( SingleObjectProcessor )
        + addInputData( perception_kit_msgs::Objects )
        # getData() : NonCopyableObjects
    '    - data : perception_kit_msgs::Objects
    '    - preprocessed_data : NotCopyableObjects
    }

    class FusionInterfacePostprocessor {
        + registerPreprocessor( ObjectListProcessor )
        + registerPreprocessor( SingleObjectProcessor )
        # postprocess( perception_kit_msgs::Objects )
    }

    class FusionInterface {
        + init( set<SensorModalities> , ObjectFusionExecuter , CostFunction )
        + fuse( Time ) : perception_kit_msgs:Objects
        + setPredictor( ObjectsPredictor )
        - predict( NonCopyableObjectsContainer, ros::Time )
        - fusion_executer_ : ObjectFusionExecuter
        - cost_function_ : CostFunction
        - predictor_ : ObjectsPredictor
    }

    FusionInterfacePreprocessor  <|- -  FusionInterface
    FusionInterfacePostprocessor <|- -  FusionInterface
}

package perception_kit_msgs <<Rectangle>> {
    class Objects
    class Object
    Objects *- - Object
}

package fusion <<Rectangle>> {

    package internal_data_structures <<Rectangle>> {
        class TraceStorage << (S,#FF7700) Static >> {
            + {static} getIdFromTrace( Trace ) : Id
        }
        class NonCopyableObjects
        class ObjectsWithTrace
        class Trace
        class CostCell
        class CostCell::LMatrix
        class ObjectsWithTrace::Container

        CostCell::LMatrix           *- - CostCell
        CostCell                    *- - Row
        CostCell                    *- - Col
        ObjectsWithTrace::Container *- - ObjectsWithTrace
        ObjectsWithTrace            *- - Trace
        ObjectsWithTrace            *- - Object
    }
}
FusionInterface ..> NonCopyableObjects : uses
FusionInterface ..> CostCell::LMatrix : uses
FusionInterface ..>  TraceStorage : uses
FusionInterface ..>  ObjectsWithTrace::Container : uses
Objects                    <|- - NonCopyableObjects
@enduml

PlantUML version 1.2017.15(Mon Jul 03 18:45:34 CEST 2017)
(GPL source distribution)
Java Runtime: OpenJDK Runtime Environment
JVM: OpenJDK 64-Bit Server VM
Java Version: 11.0.9.1+1-Ubuntu-0ubuntu1.18.04
Operating System: Linux
OS Version: 4.15.0-130-generic
Default Encoding: UTF-8
Language: en
Country: US
--></g></svg>