<?xml version="1.0" encoding="UTF-8" standalone="no"?><svg xmlns="http://www.w3.org/2000/svg" xmlns:xlink="http://www.w3.org/1999/xlink" contentScriptType="application/ecmascript" contentStyleType="text/css" height="428px" preserveAspectRatio="none" style="width:3046px;height:428px;" version="1.1" viewBox="0 0 3046 428" width="3046px" zoomAndPan="magnify"><defs><filter height="300%" id="f5mszlgocvsgh" width="300%" x="-1" y="-1"><feGaussianBlur result="blurOut" stdDeviation="2.0"/><feColorMatrix in="blurOut" result="blurOut2" type="matrix" values="0 0 0 0 0 0 0 0 0 0 0 0 0 0 0 0 0 0 .4 0"/><feOffset dx="4.0" dy="4.0" in="blurOut2" result="blurOut3"/><feBlend in="SourceGraphic" in2="blurOut3" mode="normal"/></filter></defs><g><!--cluster fusion--><rect fill="#FFFFFF" filter="url(#f5mszlgocvsgh)" height="83" style="stroke: #000000; stroke-width: 2.0;" width="146" x="14" y="35"/><text fill="#000000" font-family="sans-serif" font-size="14" font-weight="bold" lengthAdjust="spacingAndGlyphs" textLength="49" x="62.5" y="49.9951">fusion</text><!--cluster feature_fusion--><rect fill="#FFFFFF" filter="url(#f5mszlgocvsgh)" height="401" style="stroke: #000000; stroke-width: 2.0;" width="2862" x="173" y="16"/><text fill="#000000" font-family="sans-serif" font-size="14" font-weight="bold" lengthAdjust="spacingAndGlyphs" textLength="114" x="1547" y="30.9951">feature_fusion</text><!--class FusionInterface--><rect fill="#FEFECE" filter="url(#f5mszlgocvsgh)" height="48" id="FusionInterface" style="stroke: #A80036; stroke-width: 1.5;" width="129" x="22.5" y="62"/><ellipse cx="37.5" cy="78" fill="#ADD1B2" rx="11" ry="11" style="stroke: #A80036; stroke-width: 1.0;"/><path d="M40.4688,83.6406 Q39.8906,83.9375 39.25,84.0781 Q38.6094,84.2344 37.9063,84.2344 Q35.4063,84.2344 34.0781,82.5938 Q32.7656,80.9375 32.7656,77.8125 Q32.7656,74.6875 34.0781,73.0313 Q35.4063,71.375 37.9063,71.375 Q38.6094,71.375 39.25,71.5313 Q39.9063,71.6875 40.4688,71.9844 L40.4688,74.7031 Q39.8438,74.125 39.25,73.8594 Q38.6563,73.5781 38.0313,73.5781 Q36.6875,73.5781 36,74.6563 Q35.3125,75.7188 35.3125,77.8125 Q35.3125,79.9063 36,80.9844 Q36.6875,82.0469 38.0313,82.0469 Q38.6563,82.0469 39.25,81.7813 Q39.8438,81.5 40.4688,80.9219 L40.4688,83.6406 Z "/><text fill="#000000" font-family="sans-serif" font-size="12" lengthAdjust="spacingAndGlyphs" textLength="97" x="51.5" y="82.1543">FusionInterface</text><line style="stroke: #A80036; stroke-width: 1.5;" x1="23.5" x2="150.5" y1="94" y2="94"/><line style="stroke: #A80036; stroke-width: 1.5;" x1="23.5" x2="150.5" y1="102" y2="102"/><!--class ObjectFusionExecuter--><rect fill="#FEFECE" filter="url(#f5mszlgocvsgh)" height="86.4141" id="ObjectFusionExecuter" style="stroke: #A80036; stroke-width: 1.5;" width="665" x="186.5" y="43"/><ellipse cx="446.75" cy="59" fill="#ADD1B2" rx="11" ry="11" style="stroke: #A80036; stroke-width: 1.0;"/><path d="M449.7188,64.6406 Q449.1406,64.9375 448.5,65.0781 Q447.8594,65.2344 447.1563,65.2344 Q444.6563,65.2344 443.3281,63.5938 Q442.0156,61.9375 442.0156,58.8125 Q442.0156,55.6875 443.3281,54.0313 Q444.6563,52.375 447.1563,52.375 Q447.8594,52.375 448.5,52.5313 Q449.1563,52.6875 449.7188,52.9844 L449.7188,55.7031 Q449.0938,55.125 448.5,54.8594 Q447.9063,54.5781 447.2813,54.5781 Q445.9375,54.5781 445.25,55.6563 Q444.5625,56.7188 444.5625,58.8125 Q444.5625,60.9063 445.25,61.9844 Q445.9375,63.0469 447.2813,63.0469 Q447.9063,63.0469 448.5,62.7813 Q449.0938,62.5 449.7188,61.9219 L449.7188,64.6406 Z "/><text fill="#000000" font-family="sans-serif" font-size="12" lengthAdjust="spacingAndGlyphs" textLength="136" x="467.25" y="63.1543">ObjectFusionExecuter</text><line style="stroke: #A80036; stroke-width: 1.5;" x1="187.5" x2="850.5" y1="75" y2="75"/><ellipse cx="197.5" cy="86.9023" fill="none" rx="3" ry="3" style="stroke: #038048; stroke-width: 1.0;"/><text fill="#000000" font-family="sans-serif" font-size="11" lengthAdjust="spacingAndGlyphs" textLength="362" x="206.5" y="89.2104">OperationToWeightsFrameFunction operation_to_weigths_frame</text><line style="stroke: #A80036; stroke-width: 1.5;" x1="187.5" x2="850.5" y1="95.8047" y2="95.8047"/><ellipse cx="197.5" cy="107.707" fill="#84BE84" rx="3" ry="3" style="stroke: #038048; stroke-width: 1.0;"/><text fill="#000000" font-family="sans-serif" font-size="11" lengthAdjust="spacingAndGlyphs" textLength="639" x="206.5" y="110.0151">ObjectFusionExecuter( map&lt; Feature, ObjectFusion &gt; , Weights , OperationToWeightsFrameFunction = Identitiy )</text><ellipse cx="197.5" cy="120.5117" fill="#84BE84" rx="3" ry="3" style="stroke: #038048; stroke-width: 1.0;"/><text fill="#000000" font-family="sans-serif" font-size="11" lengthAdjust="spacingAndGlyphs" textLength="333" x="206.5" y="122.8198">fuse(CostCell, fused_object) : perception_kit_msgs::Object</text><!--class Weights--><rect fill="#FEFECE" filter="url(#f5mszlgocvsgh)" height="99.2188" id="Weights" style="stroke: #A80036; stroke-width: 1.5;" width="434" x="181" y="189"/><ellipse cx="368.75" cy="205" fill="#ADD1B2" rx="11" ry="11" style="stroke: #A80036; stroke-width: 1.0;"/><path d="M371.7188,210.6406 Q371.1406,210.9375 370.5,211.0781 Q369.8594,211.2344 369.1563,211.2344 Q366.6563,211.2344 365.3281,209.5938 Q364.0156,207.9375 364.0156,204.8125 Q364.0156,201.6875 365.3281,200.0313 Q366.6563,198.375 369.1563,198.375 Q369.8594,198.375 370.5,198.5313 Q371.1563,198.6875 371.7188,198.9844 L371.7188,201.7031 Q371.0938,201.125 370.5,200.8594 Q369.9063,200.5781 369.2813,200.5781 Q367.9375,200.5781 367.25,201.6563 Q366.5625,202.7188 366.5625,204.8125 Q366.5625,206.9063 367.25,207.9844 Q367.9375,209.0469 369.2813,209.0469 Q369.9063,209.0469 370.5,208.7813 Q371.0938,208.5 371.7188,207.9219 L371.7188,210.6406 Z "/><text fill="#000000" font-family="sans-serif" font-size="12" lengthAdjust="spacingAndGlyphs" textLength="50" x="389.25" y="209.1543">Weights</text><line style="stroke: #A80036; stroke-width: 1.5;" x1="182" x2="614" y1="221" y2="221"/><line style="stroke: #A80036; stroke-width: 1.5;" x1="182" x2="614" y1="229" y2="229"/><ellipse cx="192" cy="240.9023" fill="#84BE84" rx="3" ry="3" style="stroke: #038048; stroke-width: 1.0;"/><text fill="#000000" font-family="sans-serif" font-size="11" lengthAdjust="spacingAndGlyphs" textLength="262" x="201" y="243.2104">setWeight( SensorModality , Feature , Weight )</text><ellipse cx="192" cy="253.707" fill="#84BE84" rx="3" ry="3" style="stroke: #038048; stroke-width: 1.0;"/><text fill="#000000" font-family="sans-serif" font-size="11" lengthAdjust="spacingAndGlyphs" textLength="408" x="201" y="256.0151">setWeight( SensorModality , Feature , PolygonInWeightsFrame , Weight )</text><ellipse cx="192" cy="266.5117" fill="#84BE84" rx="3" ry="3" style="stroke: #038048; stroke-width: 1.0;"/><text fill="#000000" font-family="sans-serif" font-size="11" lengthAdjust="spacingAndGlyphs" textLength="405" x="201" y="268.8198">getWeight( SensorModality , Feature , PositionInWeightsFrame) : Weight</text><rect fill="#F24D5C" height="6" style="stroke: #C82930; stroke-width: 1.0;" width="6" x="189" y="276.3164"/><text fill="#000000" font-family="sans-serif" font-size="11" lengthAdjust="spacingAndGlyphs" textLength="350" x="201" y="281.6245">getWeight( Trace , Feature , PositionInWeightsFrame) : Weight</text><!--class ObjectFusion--><rect fill="#FEFECE" filter="url(#f5mszlgocvsgh)" height="60.8047" id="ObjectFusion" style="stroke: #A80036; stroke-width: 1.5;" width="300" x="1470" y="55.5"/><ellipse cx="1575.25" cy="71.5" fill="#ADD1B2" rx="11" ry="11" style="stroke: #A80036; stroke-width: 1.0;"/><path d="M1578.2188,77.1406 Q1577.6406,77.4375 1577,77.5781 Q1576.3594,77.7344 1575.6563,77.7344 Q1573.1563,77.7344 1571.8281,76.0938 Q1570.5156,74.4375 1570.5156,71.3125 Q1570.5156,68.1875 1571.8281,66.5313 Q1573.1563,64.875 1575.6563,64.875 Q1576.3594,64.875 1577,65.0313 Q1577.6563,65.1875 1578.2188,65.4844 L1578.2188,68.2031 Q1577.5938,67.625 1577,67.3594 Q1576.4063,67.0781 1575.7813,67.0781 Q1574.4375,67.0781 1573.75,68.1563 Q1573.0625,69.2188 1573.0625,71.3125 Q1573.0625,73.4063 1573.75,74.4844 Q1574.4375,75.5469 1575.7813,75.5469 Q1576.4063,75.5469 1577,75.2813 Q1577.5938,75 1578.2188,74.4219 L1578.2188,77.1406 Z "/><text fill="#000000" font-family="sans-serif" font-size="12" lengthAdjust="spacingAndGlyphs" textLength="81" x="1595.75" y="75.6543">ObjectFusion</text><line style="stroke: #A80036; stroke-width: 1.5;" x1="1471" x2="1769" y1="87.5" y2="87.5"/><line style="stroke: #A80036; stroke-width: 1.5;" x1="1471" x2="1769" y1="95.5" y2="95.5"/><ellipse cx="1481" cy="107.4023" fill="#84BE84" rx="3" ry="3" style="stroke: #038048; stroke-width: 1.0;"/><text fill="#000000" font-family="sans-serif" font-size="11" font-style="italic" lengthAdjust="spacingAndGlyphs" textLength="274" x="1490" y="109.7104">fuse( Object , Object , Weight , Weight ) : Object</text><!--class DimensionFusion--><rect fill="#FEFECE" filter="url(#f5mszlgocvsgh)" height="73.6094" id="DimensionFusion" style="stroke: #A80036; stroke-width: 1.5;" width="376" x="2651" y="201.5"/><ellipse cx="2781.75" cy="217.5" fill="#ADD1B2" rx="11" ry="11" style="stroke: #A80036; stroke-width: 1.0;"/><path d="M2784.7188,223.1406 Q2784.1406,223.4375 2783.5,223.5781 Q2782.8594,223.7344 2782.1563,223.7344 Q2779.6563,223.7344 2778.3281,222.0938 Q2777.0156,220.4375 2777.0156,217.3125 Q2777.0156,214.1875 2778.3281,212.5313 Q2779.6563,210.875 2782.1563,210.875 Q2782.8594,210.875 2783.5,211.0313 Q2784.1563,211.1875 2784.7188,211.4844 L2784.7188,214.2031 Q2784.0938,213.625 2783.5,213.3594 Q2782.9063,213.0781 2782.2813,213.0781 Q2780.9375,213.0781 2780.25,214.1563 Q2779.5625,215.2188 2779.5625,217.3125 Q2779.5625,219.4063 2780.25,220.4844 Q2780.9375,221.5469 2782.2813,221.5469 Q2782.9063,221.5469 2783.5,221.2813 Q2784.0938,221 2784.7188,220.4219 L2784.7188,223.1406 Z "/><text fill="#000000" font-family="sans-serif" font-size="12" lengthAdjust="spacingAndGlyphs" textLength="106" x="2802.25" y="221.6543">DimensionFusion</text><line style="stroke: #A80036; stroke-width: 1.5;" x1="2652" x2="3026" y1="233.5" y2="233.5"/><line style="stroke: #A80036; stroke-width: 1.5;" x1="2652" x2="3026" y1="241.5" y2="241.5"/><ellipse cx="2662" cy="253.4023" fill="#84BE84" rx="3" ry="3" style="stroke: #038048; stroke-width: 1.0;"/><text fill="#000000" font-family="sans-serif" font-size="11" lengthAdjust="spacingAndGlyphs" textLength="271" x="2671" y="255.7104">fuse( Object , Object , Weight , Weight ) : Object</text><polygon fill="#FFFF44" points="2662,261.207,2666,265.207,2662,269.207,2658,265.207" style="stroke: #B38D22; stroke-width: 1.0;"/><text fill="#000000" font-family="sans-serif" font-size="11" font-style="italic" lengthAdjust="spacingAndGlyphs" textLength="350" x="2671" y="268.5151">fuse( Object , Object , Weight , Weight ) : DimensionalFeature</text><!--class DimensionFusionWeightedNormalDistribution--><rect fill="#FEFECE" filter="url(#f5mszlgocvsgh)" height="60.8047" id="DimensionFusionWeightedNormalDistribution" style="stroke: #A80036; stroke-width: 1.5;" width="374" x="2652" y="348"/><ellipse cx="2694.45" cy="364" fill="#ADD1B2" rx="11" ry="11" style="stroke: #A80036; stroke-width: 1.0;"/><path d="M2697.4188,369.6406 Q2696.8406,369.9375 2696.2,370.0781 Q2695.5594,370.2344 2694.8563,370.2344 Q2692.3563,370.2344 2691.0281,368.5938 Q2689.7156,366.9375 2689.7156,363.8125 Q2689.7156,360.6875 2691.0281,359.0313 Q2692.3563,357.375 2694.8563,357.375 Q2695.5594,357.375 2696.2,357.5313 Q2696.8563,357.6875 2697.4188,357.9844 L2697.4188,360.7031 Q2696.7938,360.125 2696.2,359.8594 Q2695.6063,359.5781 2694.9813,359.5781 Q2693.6375,359.5781 2692.95,360.6563 Q2692.2625,361.7188 2692.2625,363.8125 Q2692.2625,365.9063 2692.95,366.9844 Q2693.6375,368.0469 2694.9813,368.0469 Q2695.6063,368.0469 2696.2,367.7813 Q2696.7938,367.5 2697.4188,366.9219 L2697.4188,369.6406 Z "/><text fill="#000000" font-family="sans-serif" font-size="12" lengthAdjust="spacingAndGlyphs" textLength="281" x="2714.55" y="368.1543">DimensionFusionWeightedNormalDistribution</text><line style="stroke: #A80036; stroke-width: 1.5;" x1="2653" x2="3025" y1="380" y2="380"/><line style="stroke: #A80036; stroke-width: 1.5;" x1="2653" x2="3025" y1="388" y2="388"/><rect fill="#F24D5C" height="6" style="stroke: #C82930; stroke-width: 1.0;" width="6" x="2660" y="396.9023"/><text fill="#000000" font-family="sans-serif" font-size="11" lengthAdjust="spacingAndGlyphs" textLength="348" x="2672" y="402.2104">fuse( Object , Object , Weight , Weight ) : DimensionalFeature</text><!--class ExitenceProbabilityFusion--><rect fill="#FEFECE" filter="url(#f5mszlgocvsgh)" height="73.6094" id="ExitenceProbabilityFusion" style="stroke: #A80036; stroke-width: 1.5;" width="361" x="650.5" y="201.5"/><ellipse cx="747.25" cy="217.5" fill="#ADD1B2" rx="11" ry="11" style="stroke: #A80036; stroke-width: 1.0;"/><path d="M750.2188,223.1406 Q749.6406,223.4375 749,223.5781 Q748.3594,223.7344 747.6563,223.7344 Q745.1563,223.7344 743.8281,222.0938 Q742.5156,220.4375 742.5156,217.3125 Q742.5156,214.1875 743.8281,212.5313 Q745.1563,210.875 747.6563,210.875 Q748.3594,210.875 749,211.0313 Q749.6563,211.1875 750.2188,211.4844 L750.2188,214.2031 Q749.5938,213.625 749,213.3594 Q748.4063,213.0781 747.7813,213.0781 Q746.4375,213.0781 745.75,214.1563 Q745.0625,215.2188 745.0625,217.3125 Q745.0625,219.4063 745.75,220.4844 Q746.4375,221.5469 747.7813,221.5469 Q748.4063,221.5469 749,221.2813 Q749.5938,221 750.2188,220.4219 L750.2188,223.1406 Z "/><text fill="#000000" font-family="sans-serif" font-size="12" lengthAdjust="spacingAndGlyphs" textLength="159" x="767.75" y="221.6543">ExitenceProbabilityFusion</text><line style="stroke: #A80036; stroke-width: 1.5;" x1="651.5" x2="1010.5" y1="233.5" y2="233.5"/><line style="stroke: #A80036; stroke-width: 1.5;" x1="651.5" x2="1010.5" y1="241.5" y2="241.5"/><ellipse cx="661.5" cy="253.4023" fill="#84BE84" rx="3" ry="3" style="stroke: #038048; stroke-width: 1.0;"/><text fill="#000000" font-family="sans-serif" font-size="11" lengthAdjust="spacingAndGlyphs" textLength="271" x="670.5" y="255.7104">fuse( Object , Object , Weight , Weight ) : Object</text><polygon fill="#FFFF44" points="661.5,261.207,665.5,265.207,661.5,269.207,657.5,265.207" style="stroke: #B38D22; stroke-width: 1.0;"/><text fill="#000000" font-family="sans-serif" font-size="11" font-style="italic" lengthAdjust="spacingAndGlyphs" textLength="335" x="670.5" y="268.5151">fuse( Object , Object , Weight , Weight ) : ExistenceFeature</text><!--class ExistenceProbabilityWeightedFusion--><rect fill="#FEFECE" filter="url(#f5mszlgocvsgh)" height="60.8047" id="ExistenceProbabilityWeightedFusion" style="stroke: #A80036; stroke-width: 1.5;" width="358" x="652" y="348"/><ellipse cx="714.25" cy="364" fill="#ADD1B2" rx="11" ry="11" style="stroke: #A80036; stroke-width: 1.0;"/><path d="M717.2188,369.6406 Q716.6406,369.9375 716,370.0781 Q715.3594,370.2344 714.6563,370.2344 Q712.1563,370.2344 710.8281,368.5938 Q709.5156,366.9375 709.5156,363.8125 Q709.5156,360.6875 710.8281,359.0313 Q712.1563,357.375 714.6563,357.375 Q715.3594,357.375 716,357.5313 Q716.6563,357.6875 717.2188,357.9844 L717.2188,360.7031 Q716.5938,360.125 716,359.8594 Q715.4063,359.5781 714.7813,359.5781 Q713.4375,359.5781 712.75,360.6563 Q712.0625,361.7188 712.0625,363.8125 Q712.0625,365.9063 712.75,366.9844 Q713.4375,368.0469 714.7813,368.0469 Q715.4063,368.0469 716,367.7813 Q716.5938,367.5 717.2188,366.9219 L717.2188,369.6406 Z "/><text fill="#000000" font-family="sans-serif" font-size="12" lengthAdjust="spacingAndGlyphs" textLength="225" x="734.75" y="368.1543">ExistenceProbabilityWeightedFusion</text><line style="stroke: #A80036; stroke-width: 1.5;" x1="653" x2="1009" y1="380" y2="380"/><line style="stroke: #A80036; stroke-width: 1.5;" x1="653" x2="1009" y1="388" y2="388"/><rect fill="#F24D5C" height="6" style="stroke: #C82930; stroke-width: 1.0;" width="6" x="660" y="396.9023"/><text fill="#000000" font-family="sans-serif" font-size="11" lengthAdjust="spacingAndGlyphs" textLength="332" x="672" y="402.2104">fuse( Object , Object , Weight , Weight ) : ExistenceFeature</text><!--class DynamicsFusion--><rect fill="#FEFECE" filter="url(#f5mszlgocvsgh)" height="73.6094" id="DynamicsFusion" style="stroke: #A80036; stroke-width: 1.5;" width="362" x="1047" y="201.5"/><ellipse cx="1173.75" cy="217.5" fill="#ADD1B2" rx="11" ry="11" style="stroke: #A80036; stroke-width: 1.0;"/><path d="M1176.7188,223.1406 Q1176.1406,223.4375 1175.5,223.5781 Q1174.8594,223.7344 1174.1563,223.7344 Q1171.6563,223.7344 1170.3281,222.0938 Q1169.0156,220.4375 1169.0156,217.3125 Q1169.0156,214.1875 1170.3281,212.5313 Q1171.6563,210.875 1174.1563,210.875 Q1174.8594,210.875 1175.5,211.0313 Q1176.1563,211.1875 1176.7188,211.4844 L1176.7188,214.2031 Q1176.0938,213.625 1175.5,213.3594 Q1174.9063,213.0781 1174.2813,213.0781 Q1172.9375,213.0781 1172.25,214.1563 Q1171.5625,215.2188 1171.5625,217.3125 Q1171.5625,219.4063 1172.25,220.4844 Q1172.9375,221.5469 1174.2813,221.5469 Q1174.9063,221.5469 1175.5,221.2813 Q1176.0938,221 1176.7188,220.4219 L1176.7188,223.1406 Z "/><text fill="#000000" font-family="sans-serif" font-size="12" lengthAdjust="spacingAndGlyphs" textLength="100" x="1194.25" y="221.6543">DynamicsFusion</text><line style="stroke: #A80036; stroke-width: 1.5;" x1="1048" x2="1408" y1="233.5" y2="233.5"/><line style="stroke: #A80036; stroke-width: 1.5;" x1="1048" x2="1408" y1="241.5" y2="241.5"/><ellipse cx="1058" cy="253.4023" fill="#84BE84" rx="3" ry="3" style="stroke: #038048; stroke-width: 1.0;"/><text fill="#000000" font-family="sans-serif" font-size="11" lengthAdjust="spacingAndGlyphs" textLength="271" x="1067" y="255.7104">fuse( Object , Object , Weight , Weight ) : Object</text><polygon fill="#FFFF44" points="1058,261.207,1062,265.207,1058,269.207,1054,265.207" style="stroke: #B38D22; stroke-width: 1.0;"/><text fill="#000000" font-family="sans-serif" font-size="11" font-style="italic" lengthAdjust="spacingAndGlyphs" textLength="336" x="1067" y="268.5151">fuse( Object , Object , Weight , Weight ) : DynamicsFeature</text><!--class DynamicsFusionWeightedNormalDistribution--><rect fill="#FEFECE" filter="url(#f5mszlgocvsgh)" height="60.8047" id="DynamicsFusionWeightedNormalDistribution" style="stroke: #A80036; stroke-width: 1.5;" width="359" x="1048.5" y="348"/><ellipse cx="1086.9" cy="364" fill="#ADD1B2" rx="11" ry="11" style="stroke: #A80036; stroke-width: 1.0;"/><path d="M1089.8688,369.6406 Q1089.2906,369.9375 1088.65,370.0781 Q1088.0094,370.2344 1087.3063,370.2344 Q1084.8063,370.2344 1083.4781,368.5938 Q1082.1656,366.9375 1082.1656,363.8125 Q1082.1656,360.6875 1083.4781,359.0313 Q1084.8063,357.375 1087.3063,357.375 Q1088.0094,357.375 1088.65,357.5313 Q1089.3063,357.6875 1089.8688,357.9844 L1089.8688,360.7031 Q1089.2438,360.125 1088.65,359.8594 Q1088.0563,359.5781 1087.4313,359.5781 Q1086.0875,359.5781 1085.4,360.6563 Q1084.7125,361.7188 1084.7125,363.8125 Q1084.7125,365.9063 1085.4,366.9844 Q1086.0875,368.0469 1087.4313,368.0469 Q1088.0563,368.0469 1088.65,367.7813 Q1089.2438,367.5 1089.8688,366.9219 L1089.8688,369.6406 Z "/><text fill="#000000" font-family="sans-serif" font-size="12" lengthAdjust="spacingAndGlyphs" textLength="275" x="1106.1" y="368.1543">DynamicsFusionWeightedNormalDistribution</text><line style="stroke: #A80036; stroke-width: 1.5;" x1="1049.5" x2="1406.5" y1="380" y2="380"/><line style="stroke: #A80036; stroke-width: 1.5;" x1="1049.5" x2="1406.5" y1="388" y2="388"/><rect fill="#F24D5C" height="6" style="stroke: #C82930; stroke-width: 1.0;" width="6" x="1056.5" y="396.9023"/><text fill="#000000" font-family="sans-serif" font-size="11" lengthAdjust="spacingAndGlyphs" textLength="333" x="1068.5" y="402.2104">fuse( Object , Object , Weight , Weight ) : DynamicsFeature</text><!--class PoseFusion--><rect fill="#FEFECE" filter="url(#f5mszlgocvsgh)" height="73.6094" id="PoseFusion" style="stroke: #A80036; stroke-width: 1.5;" width="351" x="1444.5" y="201.5"/><ellipse cx="1579.75" cy="217.5" fill="#ADD1B2" rx="11" ry="11" style="stroke: #A80036; stroke-width: 1.0;"/><path d="M1582.7188,223.1406 Q1582.1406,223.4375 1581.5,223.5781 Q1580.8594,223.7344 1580.1563,223.7344 Q1577.6563,223.7344 1576.3281,222.0938 Q1575.0156,220.4375 1575.0156,217.3125 Q1575.0156,214.1875 1576.3281,212.5313 Q1577.6563,210.875 1580.1563,210.875 Q1580.8594,210.875 1581.5,211.0313 Q1582.1563,211.1875 1582.7188,211.4844 L1582.7188,214.2031 Q1582.0938,213.625 1581.5,213.3594 Q1580.9063,213.0781 1580.2813,213.0781 Q1578.9375,213.0781 1578.25,214.1563 Q1577.5625,215.2188 1577.5625,217.3125 Q1577.5625,219.4063 1578.25,220.4844 Q1578.9375,221.5469 1580.2813,221.5469 Q1580.9063,221.5469 1581.5,221.2813 Q1582.0938,221 1582.7188,220.4219 L1582.7188,223.1406 Z "/><text fill="#000000" font-family="sans-serif" font-size="12" lengthAdjust="spacingAndGlyphs" textLength="72" x="1600.25" y="221.6543">PoseFusion</text><line style="stroke: #A80036; stroke-width: 1.5;" x1="1445.5" x2="1794.5" y1="233.5" y2="233.5"/><line style="stroke: #A80036; stroke-width: 1.5;" x1="1445.5" x2="1794.5" y1="241.5" y2="241.5"/><ellipse cx="1455.5" cy="253.4023" fill="#84BE84" rx="3" ry="3" style="stroke: #038048; stroke-width: 1.0;"/><text fill="#000000" font-family="sans-serif" font-size="11" lengthAdjust="spacingAndGlyphs" textLength="271" x="1464.5" y="255.7104">fuse( Object , Object , Weight , Weight ) : Object</text><polygon fill="#FFFF44" points="1455.5,261.207,1459.5,265.207,1455.5,269.207,1451.5,265.207" style="stroke: #B38D22; stroke-width: 1.0;"/><text fill="#000000" font-family="sans-serif" font-size="11" font-style="italic" lengthAdjust="spacingAndGlyphs" textLength="325" x="1464.5" y="268.5151">fuse( Object , Object , Weight , Weight ) : PositionFeature</text><!--class PoseFusionWeightedNormalDistribution--><rect fill="#FEFECE" filter="url(#f5mszlgocvsgh)" height="60.8047" id="PoseFusionWeightedNormalDistribution" style="stroke: #A80036; stroke-width: 1.5;" width="349" x="1445.5" y="348"/><ellipse cx="1492.25" cy="364" fill="#ADD1B2" rx="11" ry="11" style="stroke: #A80036; stroke-width: 1.0;"/><path d="M1495.2188,369.6406 Q1494.6406,369.9375 1494,370.0781 Q1493.3594,370.2344 1492.6563,370.2344 Q1490.1563,370.2344 1488.8281,368.5938 Q1487.5156,366.9375 1487.5156,363.8125 Q1487.5156,360.6875 1488.8281,359.0313 Q1490.1563,357.375 1492.6563,357.375 Q1493.3594,357.375 1494,357.5313 Q1494.6563,357.6875 1495.2188,357.9844 L1495.2188,360.7031 Q1494.5938,360.125 1494,359.8594 Q1493.4063,359.5781 1492.7813,359.5781 Q1491.4375,359.5781 1490.75,360.6563 Q1490.0625,361.7188 1490.0625,363.8125 Q1490.0625,365.9063 1490.75,366.9844 Q1491.4375,368.0469 1492.7813,368.0469 Q1493.4063,368.0469 1494,367.7813 Q1494.5938,367.5 1495.2188,366.9219 L1495.2188,369.6406 Z "/><text fill="#000000" font-family="sans-serif" font-size="12" lengthAdjust="spacingAndGlyphs" textLength="247" x="1512.75" y="368.1543">PoseFusionWeightedNormalDistribution</text><line style="stroke: #A80036; stroke-width: 1.5;" x1="1446.5" x2="1793.5" y1="380" y2="380"/><line style="stroke: #A80036; stroke-width: 1.5;" x1="1446.5" x2="1793.5" y1="388" y2="388"/><rect fill="#F24D5C" height="6" style="stroke: #C82930; stroke-width: 1.0;" width="6" x="1453.5" y="396.9023"/><text fill="#000000" font-family="sans-serif" font-size="11" lengthAdjust="spacingAndGlyphs" textLength="323" x="1465.5" y="402.2104">fuse( Object , Object , Weight , Weight ) : PositionFeature</text><!--class ClassificationFusion--><rect fill="#FEFECE" filter="url(#f5mszlgocvsgh)" height="73.6094" id="ClassificationFusion" style="stroke: #A80036; stroke-width: 1.5;" width="381" x="1830.5" y="201.5"/><ellipse cx="1955.25" cy="217.5" fill="#ADD1B2" rx="11" ry="11" style="stroke: #A80036; stroke-width: 1.0;"/><path d="M1958.2188,223.1406 Q1957.6406,223.4375 1957,223.5781 Q1956.3594,223.7344 1955.6563,223.7344 Q1953.1563,223.7344 1951.8281,222.0938 Q1950.5156,220.4375 1950.5156,217.3125 Q1950.5156,214.1875 1951.8281,212.5313 Q1953.1563,210.875 1955.6563,210.875 Q1956.3594,210.875 1957,211.0313 Q1957.6563,211.1875 1958.2188,211.4844 L1958.2188,214.2031 Q1957.5938,213.625 1957,213.3594 Q1956.4063,213.0781 1955.7813,213.0781 Q1954.4375,213.0781 1953.75,214.1563 Q1953.0625,215.2188 1953.0625,217.3125 Q1953.0625,219.4063 1953.75,220.4844 Q1954.4375,221.5469 1955.7813,221.5469 Q1956.4063,221.5469 1957,221.2813 Q1957.5938,221 1958.2188,220.4219 L1958.2188,223.1406 Z "/><text fill="#000000" font-family="sans-serif" font-size="12" lengthAdjust="spacingAndGlyphs" textLength="123" x="1975.75" y="221.6543">ClassificationFusion</text><line style="stroke: #A80036; stroke-width: 1.5;" x1="1831.5" x2="2210.5" y1="233.5" y2="233.5"/><line style="stroke: #A80036; stroke-width: 1.5;" x1="1831.5" x2="2210.5" y1="241.5" y2="241.5"/><ellipse cx="1841.5" cy="253.4023" fill="#84BE84" rx="3" ry="3" style="stroke: #038048; stroke-width: 1.0;"/><text fill="#000000" font-family="sans-serif" font-size="11" lengthAdjust="spacingAndGlyphs" textLength="271" x="1850.5" y="255.7104">fuse( Object , Object , Weight , Weight ) : Object</text><polygon fill="#FFFF44" points="1841.5,261.207,1845.5,265.207,1841.5,269.207,1837.5,265.207" style="stroke: #B38D22; stroke-width: 1.0;"/><text fill="#000000" font-family="sans-serif" font-size="11" font-style="italic" lengthAdjust="spacingAndGlyphs" textLength="355" x="1850.5" y="268.5151">fuse( Object , Object , Weight , Weight ) : ClassificationFeature</text><!--class UnionClassificationFusion--><rect fill="#FEFECE" filter="url(#f5mszlgocvsgh)" height="60.8047" id="UnionClassificationFusion" style="stroke: #A80036; stroke-width: 1.5;" width="380" x="1831" y="348"/><ellipse cx="1937.25" cy="364" fill="#ADD1B2" rx="11" ry="11" style="stroke: #A80036; stroke-width: 1.0;"/><path d="M1940.2188,369.6406 Q1939.6406,369.9375 1939,370.0781 Q1938.3594,370.2344 1937.6563,370.2344 Q1935.1563,370.2344 1933.8281,368.5938 Q1932.5156,366.9375 1932.5156,363.8125 Q1932.5156,360.6875 1933.8281,359.0313 Q1935.1563,357.375 1937.6563,357.375 Q1938.3594,357.375 1939,357.5313 Q1939.6563,357.6875 1940.2188,357.9844 L1940.2188,360.7031 Q1939.5938,360.125 1939,359.8594 Q1938.4063,359.5781 1937.7813,359.5781 Q1936.4375,359.5781 1935.75,360.6563 Q1935.0625,361.7188 1935.0625,363.8125 Q1935.0625,365.9063 1935.75,366.9844 Q1936.4375,368.0469 1937.7813,368.0469 Q1938.4063,368.0469 1939,367.7813 Q1939.5938,367.5 1940.2188,366.9219 L1940.2188,369.6406 Z "/><text fill="#000000" font-family="sans-serif" font-size="12" lengthAdjust="spacingAndGlyphs" textLength="159" x="1957.75" y="368.1543">UnionClassificationFusion</text><line style="stroke: #A80036; stroke-width: 1.5;" x1="1832" x2="2210" y1="380" y2="380"/><line style="stroke: #A80036; stroke-width: 1.5;" x1="1832" x2="2210" y1="388" y2="388"/><rect fill="#F24D5C" height="6" style="stroke: #C82930; stroke-width: 1.0;" width="6" x="1839" y="396.9023"/><text fill="#000000" font-family="sans-serif" font-size="11" lengthAdjust="spacingAndGlyphs" textLength="354" x="1851" y="402.2104">fuse( Object , Object , Weight , Weight ) : ClassificationFeature</text><!--class OrientationFusion--><rect fill="#FEFECE" filter="url(#f5mszlgocvsgh)" height="73.6094" id="OrientationFusion" style="stroke: #A80036; stroke-width: 1.5;" width="370" x="2246" y="201.5"/><ellipse cx="2371.25" cy="217.5" fill="#ADD1B2" rx="11" ry="11" style="stroke: #A80036; stroke-width: 1.0;"/><path d="M2374.2188,223.1406 Q2373.6406,223.4375 2373,223.5781 Q2372.3594,223.7344 2371.6563,223.7344 Q2369.1563,223.7344 2367.8281,222.0938 Q2366.5156,220.4375 2366.5156,217.3125 Q2366.5156,214.1875 2367.8281,212.5313 Q2369.1563,210.875 2371.6563,210.875 Q2372.3594,210.875 2373,211.0313 Q2373.6563,211.1875 2374.2188,211.4844 L2374.2188,214.2031 Q2373.5938,213.625 2373,213.3594 Q2372.4063,213.0781 2371.7813,213.0781 Q2370.4375,213.0781 2369.75,214.1563 Q2369.0625,215.2188 2369.0625,217.3125 Q2369.0625,219.4063 2369.75,220.4844 Q2370.4375,221.5469 2371.7813,221.5469 Q2372.4063,221.5469 2373,221.2813 Q2373.5938,221 2374.2188,220.4219 L2374.2188,223.1406 Z "/><text fill="#000000" font-family="sans-serif" font-size="12" lengthAdjust="spacingAndGlyphs" textLength="111" x="2391.75" y="221.6543">OrientationFusion</text><line style="stroke: #A80036; stroke-width: 1.5;" x1="2247" x2="2615" y1="233.5" y2="233.5"/><line style="stroke: #A80036; stroke-width: 1.5;" x1="2247" x2="2615" y1="241.5" y2="241.5"/><ellipse cx="2257" cy="253.4023" fill="#84BE84" rx="3" ry="3" style="stroke: #038048; stroke-width: 1.0;"/><text fill="#000000" font-family="sans-serif" font-size="11" lengthAdjust="spacingAndGlyphs" textLength="271" x="2266" y="255.7104">fuse( Object , Object , Weight , Weight ) : Object</text><polygon fill="#FFFF44" points="2257,261.207,2261,265.207,2257,269.207,2253,265.207" style="stroke: #B38D22; stroke-width: 1.0;"/><text fill="#000000" font-family="sans-serif" font-size="11" font-style="italic" lengthAdjust="spacingAndGlyphs" textLength="344" x="2266" y="268.5151">fuse( Object , Object , Weight , Weight ) : OrientationFeature</text><!--class OrientationFusionWeightedNormalDistribution--><rect fill="#FEFECE" filter="url(#f5mszlgocvsgh)" height="60.8047" id="OrientationFusionWeightedNormalDistribution" style="stroke: #A80036; stroke-width: 1.5;" width="367" x="2247.5" y="348"/><ellipse cx="2284.55" cy="364" fill="#ADD1B2" rx="11" ry="11" style="stroke: #A80036; stroke-width: 1.0;"/><path d="M2287.5188,369.6406 Q2286.9406,369.9375 2286.3,370.0781 Q2285.6594,370.2344 2284.9563,370.2344 Q2282.4563,370.2344 2281.1281,368.5938 Q2279.8156,366.9375 2279.8156,363.8125 Q2279.8156,360.6875 2281.1281,359.0313 Q2282.4563,357.375 2284.9563,357.375 Q2285.6594,357.375 2286.3,357.5313 Q2286.9563,357.6875 2287.5188,357.9844 L2287.5188,360.7031 Q2286.8938,360.125 2286.3,359.8594 Q2285.7063,359.5781 2285.0813,359.5781 Q2283.7375,359.5781 2283.05,360.6563 Q2282.3625,361.7188 2282.3625,363.8125 Q2282.3625,365.9063 2283.05,366.9844 Q2283.7375,368.0469 2285.0813,368.0469 Q2285.7063,368.0469 2286.3,367.7813 Q2286.8938,367.5 2287.5188,366.9219 L2287.5188,369.6406 Z "/><text fill="#000000" font-family="sans-serif" font-size="12" lengthAdjust="spacingAndGlyphs" textLength="286" x="2303.45" y="368.1543">OrientationFusionWeightedNormalDistribution</text><line style="stroke: #A80036; stroke-width: 1.5;" x1="2248.5" x2="2613.5" y1="380" y2="380"/><line style="stroke: #A80036; stroke-width: 1.5;" x1="2248.5" x2="2613.5" y1="388" y2="388"/><rect fill="#F24D5C" height="6" style="stroke: #C82930; stroke-width: 1.0;" width="6" x="2255.5" y="396.9023"/><text fill="#000000" font-family="sans-serif" font-size="11" lengthAdjust="spacingAndGlyphs" textLength="341" x="2267.5" y="402.2104">fuse( Object , Object , Weight , Weight ) : OrientationFeature</text><!--link FusionInterface to ObjectFusionExecuter--><path d="M164.6748,86 C164.6748,86 186.1243,86 186.1243,86 " fill="none" id="FusionInterface-ObjectFusionExecuter" style="stroke: #A80036; stroke-width: 1.0;"/><polygon fill="#A80036" points="151.6748,86,157.6748,90,163.6748,86,157.6748,82,151.6748,86" style="stroke: #A80036; stroke-width: 1.0;"/><!--link ObjectFusionExecuter to ObjectFusion--><path d="M864.5765,71 C864.5765,71 1469.6966,71 1469.6966,71 " fill="none" id="ObjectFusionExecuter-ObjectFusion" style="stroke: #A80036; stroke-width: 1.0;"/><polygon fill="#A80036" points="851.5765,71,857.5765,75,863.5765,71,857.5765,67,851.5765,71" style="stroke: #A80036; stroke-width: 1.0;"/><!--link ObjectFusionExecuter to Weights--><path d="M400.75,142.2925 C400.75,142.2925 400.75,188.9119 400.75,188.9119 " fill="none" id="ObjectFusionExecuter-Weights" style="stroke: #A80036; stroke-width: 1.0;"/><polygon fill="#A80036" points="400.75,129.2925,396.75,135.2925,400.75,141.2925,404.75,135.2925,400.75,129.2925" style="stroke: #A80036; stroke-width: 1.0;"/><!--link ObjectFusion to DimensionFusion--><path d="M1790.0841,71 C1790.0841,71 2839,71 2839,71 C2839,71 2839,151.9795 2839,201.3263 " fill="none" id="ObjectFusion-DimensionFusion" style="stroke: #A80036; stroke-width: 1.0;"/><polygon fill="none" points="1790.0842,77.9999,1770.0841,71,1790.0841,63.9999,1790.0842,77.9999" style="stroke: #A80036; stroke-width: 1.0;"/><!--link DimensionFusion to DimensionFusionWeightedNormalDistribution--><path d="M2839,295.6499 C2839,295.6499 2839,347.7994 2839,347.7994 " fill="none" id="DimensionFusion-DimensionFusionWeightedNormalDistribution" style="stroke: #A80036; stroke-width: 1.0;"/><polygon fill="none" points="2832.0001,295.6499,2839,275.6499,2846.0001,295.6498,2832.0001,295.6499" style="stroke: #A80036; stroke-width: 1.0;"/><!--link ObjectFusion to ExitenceProbabilityFusion--><path d="M1449.7565,86 C1449.7565,86 931.5,86 931.5,86 C931.5,86 931.5,156.0469 931.5,201.1943 " fill="none" id="ObjectFusion-ExitenceProbabilityFusion" style="stroke: #A80036; stroke-width: 1.0;"/><polygon fill="none" points="1449.7566,78.9999,1469.7565,86,1449.7565,92.9999,1449.7566,78.9999" style="stroke: #A80036; stroke-width: 1.0;"/><!--link ExitenceProbabilityFusion to ExistenceProbabilityWeightedFusion--><path d="M831,295.6499 C831,295.6499 831,347.7994 831,347.7994 " fill="none" id="ExitenceProbabilityFusion-ExistenceProbabilityWeightedFusion" style="stroke: #A80036; stroke-width: 1.0;"/><polygon fill="none" points="824.0001,295.6499,831,275.6499,838.0001,295.6498,824.0001,295.6499" style="stroke: #A80036; stroke-width: 1.0;"/><!--link ObjectFusion to DynamicsFusion--><path d="M1449.8437,102 C1449.8437,102 1228,102 1228,102 C1228,102 1228,160.7856 1228,201.2008 " fill="none" id="ObjectFusion-DynamicsFusion" style="stroke: #A80036; stroke-width: 1.0;"/><polygon fill="none" points="1449.8438,94.9999,1469.8437,102,1449.8437,108.9999,1449.8438,94.9999" style="stroke: #A80036; stroke-width: 1.0;"/><!--link DynamicsFusion to DynamicsFusionWeightedNormalDistribution--><path d="M1228,295.6499 C1228,295.6499 1228,347.7994 1228,347.7994 " fill="none" id="DynamicsFusion-DynamicsFusionWeightedNormalDistribution" style="stroke: #A80036; stroke-width: 1.0;"/><polygon fill="none" points="1221.0001,295.6499,1228,275.6499,1235.0001,295.6498,1221.0001,295.6499" style="stroke: #A80036; stroke-width: 1.0;"/><!--link ObjectFusion to PoseFusion--><path d="M1620,136.8607 C1620,136.8607 1620,201.4958 1620,201.4958 " fill="none" id="ObjectFusion-PoseFusion" style="stroke: #A80036; stroke-width: 1.0;"/><polygon fill="none" points="1613.0001,136.8607,1620,116.8607,1627.0001,136.8606,1613.0001,136.8607" style="stroke: #A80036; stroke-width: 1.0;"/><!--link PoseFusion to PoseFusionWeightedNormalDistribution--><path d="M1620,295.6499 C1620,295.6499 1620,347.7994 1620,347.7994 " fill="none" id="PoseFusion-PoseFusionWeightedNormalDistribution" style="stroke: #A80036; stroke-width: 1.0;"/><polygon fill="none" points="1613.0001,295.6499,1620,275.6499,1627.0001,295.6498,1613.0001,295.6499" style="stroke: #A80036; stroke-width: 1.0;"/><!--link ObjectFusion to OrientationFusion--><path d="M1790.1684,86 C1790.1684,86 2431,86 2431,86 C2431,86 2431,156.0469 2431,201.1943 " fill="none" id="ObjectFusion-OrientationFusion" style="stroke: #A80036; stroke-width: 1.0;"/><polygon fill="none" points="1790.1684,92.9999,1770.1684,86,1790.1683,78.9999,1790.1684,92.9999" style="stroke: #A80036; stroke-width: 1.0;"/><!--link OrientationFusion to OrientationFusionWeightedNormalDistribution--><path d="M2431,295.6499 C2431,295.6499 2431,347.7994 2431,347.7994 " fill="none" id="OrientationFusion-OrientationFusionWeightedNormalDistribution" style="stroke: #A80036; stroke-width: 1.0;"/><polygon fill="none" points="2424.0001,295.6499,2431,275.6499,2438.0001,295.6498,2424.0001,295.6499" style="stroke: #A80036; stroke-width: 1.0;"/><!--link ObjectFusion to ClassificationFusion--><path d="M1790.1731,102 C1790.1731,102 2021,102 2021,102 C2021,102 2021,160.7856 2021,201.2008 " fill="none" id="ObjectFusion-ClassificationFusion" style="stroke: #A80036; stroke-width: 1.0;"/><polygon fill="none" points="1790.1732,108.9999,1770.1731,102,1790.1731,94.9999,1790.1732,108.9999" style="stroke: #A80036; stroke-width: 1.0;"/><!--link ClassificationFusion to UnionClassificationFusion--><path d="M2021,295.6499 C2021,295.6499 2021,347.7994 2021,347.7994 " fill="none" id="ClassificationFusion-UnionClassificationFusion" style="stroke: #A80036; stroke-width: 1.0;"/><polygon fill="none" points="2014.0001,295.6499,2021,275.6499,2028.0001,295.6498,2014.0001,295.6499" style="stroke: #A80036; stroke-width: 1.0;"/><!--
@startuml(id=feature_fusion) TrackToTrackFusion_Feature

skinparam linetype ortho

package fusion <<Rectangle>> {

    class FusionInterface {
    }
} 

package feature_fusion <<Rectangle>> {
    class ObjectFusionExecuter {
        + ObjectFusionExecuter( map< Feature, ObjectFusion > , Weights , OperationToWeightsFrameFunction = Identitiy )
        + fuse(CostCell, fused_object) : perception_kit_msgs::Object
        + OperationToWeightsFrameFunction operation_to_weigths_frame
    }

    class Weights {

        + setWeight( SensorModality , Feature , Weight )
        + setWeight( SensorModality , Feature , PolygonInWeightsFrame , Weight )
        + getWeight( SensorModality , Feature , PositionInWeightsFrame) : Weight
        - getWeight( Trace , Feature , PositionInWeightsFrame) : Weight

    }

    class ObjectFusion {
        + {abstract} fuse( Object , Object , Weight , Weight ) : Object
    }

    class DimensionFusion {
        +  fuse( Object , Object , Weight , Weight ) : Object
        #  {abstract} fuse( Object , Object , Weight , Weight ) : DimensionalFeature
    }
    class DimensionFusionWeightedNormalDistribution {
        - fuse( Object , Object , Weight , Weight ) : DimensionalFeature
    }

    class ExitenceProbabilityFusion {
        +  fuse( Object , Object , Weight , Weight ) : Object
        #  {abstract} fuse( Object , Object , Weight , Weight ) : ExistenceFeature
    }
    class ExistenceProbabilityWeightedFusion {
        -  fuse( Object , Object , Weight , Weight ) : ExistenceFeature
    }
    
    class DynamicsFusion {
        +  fuse( Object , Object , Weight , Weight ) : Object
        #  {abstract} fuse( Object , Object , Weight , Weight ) : DynamicsFeature
    }
    class DynamicsFusionWeightedNormalDistribution {
        - fuse( Object , Object , Weight , Weight ) : DynamicsFeature
    }

    class PoseFusion {
        +  fuse( Object , Object , Weight , Weight ) : Object
        #  {abstract} fuse( Object , Object , Weight , Weight ) : PositionFeature
    }
    class PoseFusionWeightedNormalDistribution {
        - fuse( Object , Object , Weight , Weight ) : PositionFeature
    }

    class ClassificationFusion {
        +  fuse( Object , Object , Weight , Weight ) : Object
        #  {abstract} fuse( Object , Object , Weight , Weight ) : ClassificationFeature
    }
    class UnionClassificationFusion {
        - fuse( Object , Object , Weight , Weight ) : ClassificationFeature
    }

    class OrientationFusion {
        +  fuse( Object , Object , Weight , Weight ) : Object
        #  {abstract} fuse( Object , Object , Weight , Weight ) : OrientationFeature
    }
    class OrientationFusionWeightedNormalDistribution {
        -  fuse( Object , Object , Weight , Weight ) : OrientationFeature
    }

    FusionInterface *-right- ObjectFusionExecuter

    ObjectFusionExecuter *-right- ObjectFusion
    ObjectFusionExecuter *- - Weights

    ObjectFusion <|- - DimensionFusion 
    DimensionFusion <|- - DimensionFusionWeightedNormalDistribution

    ObjectFusion <|- - ExitenceProbabilityFusion
    ExitenceProbabilityFusion <|- - ExistenceProbabilityWeightedFusion

    ObjectFusion <|- - DynamicsFusion
    DynamicsFusion <|- - DynamicsFusionWeightedNormalDistribution

    ObjectFusion <|- - PoseFusion
    PoseFusion <|- - PoseFusionWeightedNormalDistribution

    ObjectFusion <|- - OrientationFusion
    OrientationFusion <|- - OrientationFusionWeightedNormalDistribution

    ObjectFusion <|- - ClassificationFusion
    ClassificationFusion <|- - UnionClassificationFusion

}
@enduml

PlantUML version 1.2017.15(Mon Jul 03 18:45:34 CEST 2017)
(GPL source distribution)
Java Runtime: OpenJDK Runtime Environment
JVM: OpenJDK 64-Bit Server VM
Java Version: 11.0.9.1+1-Ubuntu-0ubuntu1.18.04
Operating System: Linux
OS Version: 4.15.0-130-generic
Default Encoding: UTF-8
Language: en
Country: US
--></g></svg>