<?xml version="1.0" encoding="UTF-8" standalone="no"?><svg xmlns="http://www.w3.org/2000/svg" xmlns:xlink="http://www.w3.org/1999/xlink" contentScriptType="application/ecmascript" contentStyleType="text/css" height="372px" preserveAspectRatio="none" style="width:663px;height:372px;" version="1.1" viewBox="0 0 663 372" width="663px" zoomAndPan="magnify"><defs><filter height="300%" id="fkl77fmhy8a8b" width="300%" x="-1" y="-1"><feGaussianBlur result="blurOut" stdDeviation="2.0"/><feColorMatrix in="blurOut" result="blurOut2" type="matrix" values="0 0 0 0 0 0 0 0 0 0 0 0 0 0 0 0 0 0 .4 0"/><feOffset dx="4.0" dy="4.0" in="blurOut2" result="blurOut3"/><feBlend in="SourceGraphic" in2="blurOut3" mode="normal"/></filter></defs><g><!--cluster fusion--><rect fill="#FFFFFF" filter="url(#fkl77fmhy8a8b)" height="345" style="stroke: #000000; stroke-width: 2.0;" width="638" x="14" y="16"/><text fill="#000000" font-family="sans-serif" font-size="14" font-weight="bold" lengthAdjust="spacingAndGlyphs" textLength="49" x="308.5" y="30.9951">fusion</text><!--class FusionInterfacePreprocessor--><rect fill="#FEFECE" filter="url(#fkl77fmhy8a8b)" height="112.0234" id="FusionInterfacePreprocessor" style="stroke: #A80036; stroke-width: 1.5;" width="293" x="350.5" y="43"/><ellipse cx="402.25" cy="59" fill="#ADD1B2" rx="11" ry="11" style="stroke: #A80036; stroke-width: 1.0;"/><path d="M405.2188,64.6406 Q404.6406,64.9375 404,65.0781 Q403.3594,65.2344 402.6563,65.2344 Q400.1563,65.2344 398.8281,63.5938 Q397.5156,61.9375 397.5156,58.8125 Q397.5156,55.6875 398.8281,54.0313 Q400.1563,52.375 402.6563,52.375 Q403.3594,52.375 404,52.5313 Q404.6563,52.6875 405.2188,52.9844 L405.2188,55.7031 Q404.5938,55.125 404,54.8594 Q403.4063,54.5781 402.7813,54.5781 Q401.4375,54.5781 400.75,55.6563 Q400.0625,56.7188 400.0625,58.8125 Q400.0625,60.9063 400.75,61.9844 Q401.4375,63.0469 402.7813,63.0469 Q403.4063,63.0469 404,62.7813 Q404.5938,62.5 405.2188,61.9219 L405.2188,64.6406 Z "/><text fill="#000000" font-family="sans-serif" font-size="12" lengthAdjust="spacingAndGlyphs" textLength="181" x="422.75" y="63.1543">FusionInterfacePreprocessor</text><line style="stroke: #A80036; stroke-width: 1.5;" x1="351.5" x2="642.5" y1="75" y2="75"/><line style="stroke: #A80036; stroke-width: 1.5;" x1="351.5" x2="642.5" y1="83" y2="83"/><ellipse cx="361.5" cy="94.9023" fill="#84BE84" rx="3" ry="3" style="stroke: #038048; stroke-width: 1.0;"/><text fill="#000000" font-family="sans-serif" font-size="11" lengthAdjust="spacingAndGlyphs" textLength="241" x="370.5" y="97.2104">preprocess(perception_kit_msgs::Objects)</text><ellipse cx="361.5" cy="107.707" fill="#84BE84" rx="3" ry="3" style="stroke: #038048; stroke-width: 1.0;"/><text fill="#000000" font-family="sans-serif" font-size="11" lengthAdjust="spacingAndGlyphs" textLength="252" x="370.5" y="110.0151">registerPreprocessor( ObjectListProcessor )</text><ellipse cx="361.5" cy="120.5117" fill="#84BE84" rx="3" ry="3" style="stroke: #038048; stroke-width: 1.0;"/><text fill="#000000" font-family="sans-serif" font-size="11" lengthAdjust="spacingAndGlyphs" textLength="267" x="370.5" y="122.8198">registerPreprocessor( SingleObjectProcessor )</text><ellipse cx="361.5" cy="133.3164" fill="#84BE84" rx="3" ry="3" style="stroke: #038048; stroke-width: 1.0;"/><text fill="#000000" font-family="sans-serif" font-size="11" lengthAdjust="spacingAndGlyphs" textLength="259" x="370.5" y="135.6245">addInputData( perception_kit_msgs::Objects )</text><polygon fill="#FFFF44" points="361.5,141.1211,365.5,145.1211,361.5,149.1211,357.5,145.1211" style="stroke: #B38D22; stroke-width: 1.0;"/><text fill="#000000" font-family="sans-serif" font-size="11" lengthAdjust="spacingAndGlyphs" textLength="181" x="370.5" y="148.4292">getData() : NonCopyableObjects</text><!--class FusionInterfacePostprocessor--><rect fill="#FEFECE" filter="url(#fkl77fmhy8a8b)" height="86.4141" id="FusionInterfacePostprocessor" style="stroke: #A80036; stroke-width: 1.5;" width="293" x="22.5" y="56"/><ellipse cx="70.75" cy="72" fill="#ADD1B2" rx="11" ry="11" style="stroke: #A80036; stroke-width: 1.0;"/><path d="M73.7188,77.6406 Q73.1406,77.9375 72.5,78.0781 Q71.8594,78.2344 71.1563,78.2344 Q68.6563,78.2344 67.3281,76.5938 Q66.0156,74.9375 66.0156,71.8125 Q66.0156,68.6875 67.3281,67.0313 Q68.6563,65.375 71.1563,65.375 Q71.8594,65.375 72.5,65.5313 Q73.1563,65.6875 73.7188,65.9844 L73.7188,68.7031 Q73.0938,68.125 72.5,67.8594 Q71.9063,67.5781 71.2813,67.5781 Q69.9375,67.5781 69.25,68.6563 Q68.5625,69.7188 68.5625,71.8125 Q68.5625,73.9063 69.25,74.9844 Q69.9375,76.0469 71.2813,76.0469 Q71.9063,76.0469 72.5,75.7813 Q73.0938,75.5 73.7188,74.9219 L73.7188,77.6406 Z "/><text fill="#000000" font-family="sans-serif" font-size="12" lengthAdjust="spacingAndGlyphs" textLength="188" x="91.25" y="76.1543">FusionInterfacePostprocessor</text><line style="stroke: #A80036; stroke-width: 1.5;" x1="23.5" x2="314.5" y1="88" y2="88"/><line style="stroke: #A80036; stroke-width: 1.5;" x1="23.5" x2="314.5" y1="96" y2="96"/><ellipse cx="33.5" cy="107.9023" fill="#84BE84" rx="3" ry="3" style="stroke: #038048; stroke-width: 1.0;"/><text fill="#000000" font-family="sans-serif" font-size="11" lengthAdjust="spacingAndGlyphs" textLength="252" x="42.5" y="110.2104">registerPreprocessor( ObjectListProcessor )</text><ellipse cx="33.5" cy="120.707" fill="#84BE84" rx="3" ry="3" style="stroke: #038048; stroke-width: 1.0;"/><text fill="#000000" font-family="sans-serif" font-size="11" lengthAdjust="spacingAndGlyphs" textLength="267" x="42.5" y="123.0151">registerPreprocessor( SingleObjectProcessor )</text><polygon fill="#FFFF44" points="33.5,128.5117,37.5,132.5117,33.5,136.5117,29.5,132.5117" style="stroke: #B38D22; stroke-width: 1.0;"/><text fill="#000000" font-family="sans-serif" font-size="11" lengthAdjust="spacingAndGlyphs" textLength="255" x="42.5" y="135.8198">postprocess( perception_kit_msgs::Objects )</text><!--class FusionInterface--><rect fill="#FEFECE" filter="url(#fkl77fmhy8a8b)" height="137.6328" id="FusionInterface" style="stroke: #A80036; stroke-width: 1.5;" width="412" x="127" y="215"/><ellipse cx="280.25" cy="231" fill="#ADD1B2" rx="11" ry="11" style="stroke: #A80036; stroke-width: 1.0;"/><path d="M283.2188,236.6406 Q282.6406,236.9375 282,237.0781 Q281.3594,237.2344 280.6563,237.2344 Q278.1563,237.2344 276.8281,235.5938 Q275.5156,233.9375 275.5156,230.8125 Q275.5156,227.6875 276.8281,226.0313 Q278.1563,224.375 280.6563,224.375 Q281.3594,224.375 282,224.5313 Q282.6563,224.6875 283.2188,224.9844 L283.2188,227.7031 Q282.5938,227.125 282,226.8594 Q281.4063,226.5781 280.7813,226.5781 Q279.4375,226.5781 278.75,227.6563 Q278.0625,228.7188 278.0625,230.8125 Q278.0625,232.9063 278.75,233.9844 Q279.4375,235.0469 280.7813,235.0469 Q281.4063,235.0469 282,234.7813 Q282.5938,234.5 283.2188,233.9219 L283.2188,236.6406 Z "/><text fill="#000000" font-family="sans-serif" font-size="12" lengthAdjust="spacingAndGlyphs" textLength="97" x="300.75" y="235.1543">FusionInterface</text><line style="stroke: #A80036; stroke-width: 1.5;" x1="128" x2="538" y1="247" y2="247"/><rect fill="none" height="6" style="stroke: #C82930; stroke-width: 1.0;" width="6" x="135" y="255.9023"/><text fill="#000000" font-family="sans-serif" font-size="11" lengthAdjust="spacingAndGlyphs" textLength="230" x="147" y="261.2104">fusion_executer_ : ObjectFusionExecuter</text><rect fill="none" height="6" style="stroke: #C82930; stroke-width: 1.0;" width="6" x="135" y="268.707"/><text fill="#000000" font-family="sans-serif" font-size="11" lengthAdjust="spacingAndGlyphs" textLength="166" x="147" y="274.0151">cost_function_ : CostFunction</text><rect fill="none" height="6" style="stroke: #C82930; stroke-width: 1.0;" width="6" x="135" y="281.5117"/><text fill="#000000" font-family="sans-serif" font-size="11" lengthAdjust="spacingAndGlyphs" textLength="163" x="147" y="286.8198">predictor_ : ObjectsPredictor</text><line style="stroke: #A80036; stroke-width: 1.5;" x1="128" x2="538" y1="293.4141" y2="293.4141"/><ellipse cx="138" cy="305.3164" fill="#84BE84" rx="3" ry="3" style="stroke: #038048; stroke-width: 1.0;"/><text fill="#000000" font-family="sans-serif" font-size="11" lengthAdjust="spacingAndGlyphs" textLength="386" x="147" y="307.6245">init( set&lt;SensorModalities&gt; , ObjectFusionExecuter , CostFunction )</text><ellipse cx="138" cy="318.1211" fill="#84BE84" rx="3" ry="3" style="stroke: #038048; stroke-width: 1.0;"/><text fill="#000000" font-family="sans-serif" font-size="11" lengthAdjust="spacingAndGlyphs" textLength="245" x="147" y="320.4292">fuse( Time ) : perception_kit_msgs:Objects</text><ellipse cx="138" cy="330.9258" fill="#84BE84" rx="3" ry="3" style="stroke: #038048; stroke-width: 1.0;"/><text fill="#000000" font-family="sans-serif" font-size="11" lengthAdjust="spacingAndGlyphs" textLength="179" x="147" y="333.2339">setPredictor( ObjectsPredictor )</text><rect fill="#F24D5C" height="6" style="stroke: #C82930; stroke-width: 1.0;" width="6" x="135" y="340.7305"/><text fill="#000000" font-family="sans-serif" font-size="11" lengthAdjust="spacingAndGlyphs" textLength="290" x="147" y="346.0386">predict( NonCopyableObjectsContainer, ros::Time )</text><!--link FusionInterfacePreprocessor to FusionInterface--><path d="M444.75,175.0081 C444.75,175.0081 444.75,214.7726 444.75,214.7726 " fill="none" id="FusionInterfacePreprocessor-FusionInterface" style="stroke: #A80036; stroke-width: 1.0;"/><polygon fill="none" points="437.7501,175.0082,444.75,155.0081,451.7501,175.0081,437.7501,175.0082" style="stroke: #A80036; stroke-width: 1.0;"/><!--link FusionInterfacePostprocessor to FusionInterface--><path d="M221.25,162.3743 C221.25,162.3743 221.25,214.8395 221.25,214.8395 " fill="none" id="FusionInterfacePostprocessor-FusionInterface" style="stroke: #A80036; stroke-width: 1.0;"/><polygon fill="none" points="214.2501,162.3743,221.25,142.3743,228.2501,162.3742,214.2501,162.3743" style="stroke: #A80036; stroke-width: 1.0;"/><!--
@startuml(id=fusion) TrackToTrackFusion_Fusion

skinparam linetype ortho

package fusion <<Rectangle>> {
    class FusionInterfacePreprocessor {
        + preprocess(perception_kit_msgs::Objects)
        + registerPreprocessor( ObjectListProcessor )
        + registerPreprocessor( SingleObjectProcessor )
        + addInputData( perception_kit_msgs::Objects )
        # getData() : NonCopyableObjects
    '    - data : perception_kit_msgs::Objects
    '    - preprocessed_data : NotCopyableObjects
    }

    class FusionInterfacePostprocessor {
        + registerPreprocessor( ObjectListProcessor )
        + registerPreprocessor( SingleObjectProcessor )
        # postprocess( perception_kit_msgs::Objects )
    }

    class FusionInterface {
        + init( set<SensorModalities> , ObjectFusionExecuter , CostFunction )
        + fuse( Time ) : perception_kit_msgs:Objects
        + setPredictor( ObjectsPredictor )
        - predict( NonCopyableObjectsContainer, ros::Time )
        - fusion_executer_ : ObjectFusionExecuter
        - cost_function_ : CostFunction
        - predictor_ : ObjectsPredictor
    }

    FusionInterfacePreprocessor  <|- -  FusionInterface
    FusionInterfacePostprocessor <|- -  FusionInterface
}
@enduml

PlantUML version 1.2017.15(Mon Jul 03 18:45:34 CEST 2017)
(GPL source distribution)
Java Runtime: OpenJDK Runtime Environment
JVM: OpenJDK 64-Bit Server VM
Java Version: 11.0.9.1+1-Ubuntu-0ubuntu1.18.04
Operating System: Linux
OS Version: 4.15.0-130-generic
Default Encoding: UTF-8
Language: en
Country: US
--></g></svg>