<?xml version="1.0" encoding="UTF-8" standalone="no"?><svg xmlns="http://www.w3.org/2000/svg" xmlns:xlink="http://www.w3.org/1999/xlink" contentScriptType="application/ecmascript" contentStyleType="text/css" height="304px" preserveAspectRatio="none" style="width:659px;height:304px;" version="1.1" viewBox="0 0 659 304" width="659px" zoomAndPan="magnify"><defs><filter height="300%" id="f1dl9jz3rvb36c" width="300%" x="-1" y="-1"><feGaussianBlur result="blurOut" stdDeviation="2.0"/><feColorMatrix in="blurOut" result="blurOut2" type="matrix" values="0 0 0 0 0 0 0 0 0 0 0 0 0 0 0 0 0 0 .4 0"/><feOffset dx="4.0" dy="4.0" in="blurOut2" result="blurOut3"/><feBlend in="SourceGraphic" in2="blurOut3" mode="normal"/></filter></defs><g><!--cluster fusion--><rect fill="#FFFFFF" filter="url(#f1dl9jz3rvb36c)" height="83" style="stroke: #000000; stroke-width: 2.0;" width="146" x="14" y="29"/><text fill="#000000" font-family="sans-serif" font-size="14" font-weight="bold" lengthAdjust="spacingAndGlyphs" textLength="49" x="62.5" y="43.9951">fusion</text><!--cluster cost--><rect fill="#FFFFFF" filter="url(#f1dl9jz3rvb36c)" height="277" style="stroke: #000000; stroke-width: 2.0;" width="480" x="168" y="16"/><text fill="#000000" font-family="sans-serif" font-size="14" font-weight="bold" lengthAdjust="spacingAndGlyphs" textLength="34" x="391" y="30.9951">cost</text><!--class FusionInterface--><rect fill="#FEFECE" filter="url(#f1dl9jz3rvb36c)" height="48" id="FusionInterface" style="stroke: #A80036; stroke-width: 1.5;" width="129" x="22.5" y="56"/><ellipse cx="37.5" cy="72" fill="#ADD1B2" rx="11" ry="11" style="stroke: #A80036; stroke-width: 1.0;"/><path d="M40.4688,77.6406 Q39.8906,77.9375 39.25,78.0781 Q38.6094,78.2344 37.9063,78.2344 Q35.4063,78.2344 34.0781,76.5938 Q32.7656,74.9375 32.7656,71.8125 Q32.7656,68.6875 34.0781,67.0313 Q35.4063,65.375 37.9063,65.375 Q38.6094,65.375 39.25,65.5313 Q39.9063,65.6875 40.4688,65.9844 L40.4688,68.7031 Q39.8438,68.125 39.25,67.8594 Q38.6563,67.5781 38.0313,67.5781 Q36.6875,67.5781 36,68.6563 Q35.3125,69.7188 35.3125,71.8125 Q35.3125,73.9063 36,74.9844 Q36.6875,76.0469 38.0313,76.0469 Q38.6563,76.0469 39.25,75.7813 Q39.8438,75.5 40.4688,74.9219 L40.4688,77.6406 Z "/><text fill="#000000" font-family="sans-serif" font-size="12" lengthAdjust="spacingAndGlyphs" textLength="97" x="51.5" y="76.1543">FusionInterface</text><line style="stroke: #A80036; stroke-width: 1.5;" x1="23.5" x2="150.5" y1="88" y2="88"/><line style="stroke: #A80036; stroke-width: 1.5;" x1="23.5" x2="150.5" y1="96" y2="96"/><!--class CostCalculator--><rect fill="#FEFECE" filter="url(#f1dl9jz3rvb36c)" height="73.6094" id="CostCalculator" style="stroke: #A80036; stroke-width: 1.5;" width="143" x="254.5" y="43"/><ellipse cx="278.5" cy="59" fill="#ADD1B2" rx="11" ry="11" style="stroke: #A80036; stroke-width: 1.0;"/><path d="M281.4688,64.6406 Q280.8906,64.9375 280.25,65.0781 Q279.6094,65.2344 278.9063,65.2344 Q276.4063,65.2344 275.0781,63.5938 Q273.7656,61.9375 273.7656,58.8125 Q273.7656,55.6875 275.0781,54.0313 Q276.4063,52.375 278.9063,52.375 Q279.6094,52.375 280.25,52.5313 Q280.9063,52.6875 281.4688,52.9844 L281.4688,55.7031 Q280.8438,55.125 280.25,54.8594 Q279.6563,54.5781 279.0313,54.5781 Q277.6875,54.5781 277,55.6563 Q276.3125,56.7188 276.3125,58.8125 Q276.3125,60.9063 277,61.9844 Q277.6875,63.0469 279.0313,63.0469 Q279.6563,63.0469 280.25,62.7813 Q280.8438,62.5 281.4688,61.9219 L281.4688,64.6406 Z "/><text fill="#000000" font-family="sans-serif" font-size="12" lengthAdjust="spacingAndGlyphs" textLength="91" x="294.5" y="63.1543">CostCalculator</text><line style="stroke: #A80036; stroke-width: 1.5;" x1="255.5" x2="396.5" y1="75" y2="75"/><line style="stroke: #A80036; stroke-width: 1.5;" x1="255.5" x2="396.5" y1="83" y2="83"/><ellipse cx="265.5" cy="94.9023" fill="#84BE84" rx="3" ry="3" style="stroke: #038048; stroke-width: 1.0;"/><text fill="#000000" font-family="sans-serif" font-size="11" lengthAdjust="spacingAndGlyphs" textLength="117" x="274.5" y="97.2104">cost() : CostFunction</text><ellipse cx="265.5" cy="107.707" fill="#84BE84" rx="3" ry="3" style="stroke: #038048; stroke-width: 1.0;"/><text fill="#000000" font-family="sans-serif" font-size="11" lengthAdjust="spacingAndGlyphs" textLength="112" x="274.5" y="110.0151">threshold() : double</text><!--class CostFunction--><rect fill="#FEFECE" filter="url(#f1dl9jz3rvb36c)" height="23.9688" id="CostFunction" style="stroke: #A80036; stroke-width: 1.5;" width="88" x="316" y="177"/><text fill="#000000" font-family="sans-serif" font-size="12" lengthAdjust="spacingAndGlyphs" textLength="82" x="319" y="193.1387">CostFunction</text><!--class EuclidanDistance--><rect fill="#FEFECE" filter="url(#f1dl9jz3rvb36c)" height="23.9688" id="EuclidanDistance" style="stroke: #A80036; stroke-width: 1.5;" width="114" x="176" y="261"/><text fill="#000000" font-family="sans-serif" font-size="12" lengthAdjust="spacingAndGlyphs" textLength="108" x="179" y="277.1387">EuclidanDistance</text><!--class EuclidanDistanceSqrt--><rect fill="#FEFECE" filter="url(#f1dl9jz3rvb36c)" height="23.9688" id="EuclidanDistanceSqrt" style="stroke: #A80036; stroke-width: 1.5;" width="140" x="325" y="261"/><text fill="#000000" font-family="sans-serif" font-size="12" lengthAdjust="spacingAndGlyphs" textLength="134" x="328" y="277.1387">EuclidanDistanceSqrt</text><!--class MahanalobisDistance--><rect fill="#FEFECE" filter="url(#f1dl9jz3rvb36c)" height="23.9688" id="MahanalobisDistance" style="stroke: #A80036; stroke-width: 1.5;" width="140" x="500" y="261"/><text fill="#000000" font-family="sans-serif" font-size="12" lengthAdjust="spacingAndGlyphs" textLength="134" x="503" y="277.1387">MahanalobisDistance</text><!--link CostCalculator to CostFunction--><path d="M356.75,130.2068 C356.75,130.2068 356.75,176.728 356.75,176.728 " fill="none" id="CostCalculator-CostFunction" style="stroke: #A80036; stroke-width: 1.0;"/><polygon fill="#A80036" points="356.75,117.2068,352.75,123.2068,356.75,129.2068,360.75,123.2068,356.75,117.2068" style="stroke: #A80036; stroke-width: 1.0;"/><!--link CostFunction to EuclidanDistance--><path d="M320.5,201.0352 C320.5,224.2619 320.5,273 320.5,273 C320.5,273 306.8802,273 290.3875,273 " fill="none" id="CostFunction-EuclidanDistance" style="stroke: #A80036; stroke-width: 1.0; stroke-dasharray: 7.0,7.0;"/><!--link CostFunction to EuclidanDistanceSqrt--><path d="M364.5,201.0352 C364.5,217.0035 364.5,245.03 364.5,260.9872 " fill="none" id="CostFunction-EuclidanDistanceSqrt" style="stroke: #A80036; stroke-width: 1.0; stroke-dasharray: 7.0,7.0;"/><!--link CostFunction to MahanalobisDistance--><path d="M404.0229,189 C465.6016,189 570,189 570,189 C570,189 570,237.7381 570,260.9648 " fill="none" id="CostFunction-MahanalobisDistance" style="stroke: #A80036; stroke-width: 1.0; stroke-dasharray: 7.0,7.0;"/><!--link FusionInterface to CostCalculator--><path d="M164.6768,80 C164.6768,80 254.1162,80 254.1162,80 " fill="none" id="FusionInterface-CostCalculator" style="stroke: #A80036; stroke-width: 1.0;"/><polygon fill="#A80036" points="151.6768,80,157.6768,84,163.6768,80,157.6768,76,151.6768,80" style="stroke: #A80036; stroke-width: 1.0;"/><!--
@startuml(id=cost) TrackToTrackFusion_Cost

skinparam linetype ortho

package fusion <<Rectangle>> {

    class FusionInterface {
    }
} 

package cost <<Rectangle>> {

    class CostCalculator {
        + cost() : CostFunction
        + threshold() : double
    }

    class CostFunction {
    }

    CostCalculator *- - CostFunction

    CostFunction .. EuclidanDistance
    CostFunction .. EuclidanDistanceSqrt
    CostFunction .. MahanalobisDistance
 
    hide members
    show CostCalculator members
    
    hide CostFunction circle
    hide EuclidanDistance circle
    hide MahanalobisDistance circle
    hide EuclidanDistanceSqrt circle

    FusionInterface                *-right-  CostCalculator
}


@enduml

PlantUML version 1.2017.15(Mon Jul 03 18:45:34 CEST 2017)
(GPL source distribution)
Java Runtime: OpenJDK Runtime Environment
JVM: OpenJDK 64-Bit Server VM
Java Version: 11.0.9.1+1-Ubuntu-0ubuntu1.18.04
Operating System: Linux
OS Version: 4.15.0-130-generic
Default Encoding: UTF-8
Language: en
Country: US
--></g></svg>